<?xml version="1.0" encoding="UTF-8"?>
<!DOCTYPE svg PUBLIC "-//W3C//DTD SVG 1.1//EN" "http://www.w3.org/Graphics/SVG/1.1/DTD/svg11.dtd">
<svg xmlns="http://www.w3.org/2000/svg" version="1.1" width="512px" height="512px" style="shape-rendering:geometricPrecision; text-rendering:geometricPrecision; image-rendering:optimizeQuality; fill-rule:evenodd; clip-rule:evenodd" xmlns:xlink="http://www.w3.org/1999/xlink">
<g><path style="opacity:0.937" fill="#000000" d="M 104.5,-0.5 C 149.167,-0.5 193.833,-0.5 238.5,-0.5C 255.084,4.63751 263.418,15.9708 263.5,33.5C 275.243,33.0645 286.91,33.5645 298.5,35C 304.106,37.7713 307.106,42.2713 307.5,48.5C 367.501,48.3333 427.501,48.5 487.5,49C 499.363,51.3661 507.363,58.1994 511.5,69.5C 511.5,74.5 511.5,79.5 511.5,84.5C 508.374,95.124 501.374,101.957 490.5,105C 429.501,105.5 368.501,105.667 307.5,105.5C 306.588,114.912 301.422,120.245 292,121.5C 288.276,131.281 284.276,140.948 280,150.5C 275.432,154.986 269.932,156.653 263.5,155.5C 263.666,160.844 263.499,166.177 263,171.5C 260.565,176.224 256.731,177.724 251.5,176C 249.951,174.786 248.785,173.286 248,171.5C 247.501,166.177 247.334,160.844 247.5,155.5C 241.068,156.653 235.568,154.986 231,150.5C 226.724,140.948 222.724,131.281 219,121.5C 209.601,120.268 204.435,114.934 203.5,105.5C 167.5,105.5 131.5,105.5 95.5,105.5C 96.3194,137.19 81.3194,149.69 50.5,143C 36.611,134.379 30.9444,121.879 33.5,105.5C 16.5968,107.067 5.26347,100.067 -0.5,84.5C -0.5,79.5 -0.5,74.5 -0.5,69.5C 3.63732,58.1994 11.6373,51.3661 23.5,49C 33.8333,48.3333 44.1667,48.3333 54.5,49C 60.448,51.4329 61.948,55.5996 59,61.5C 58.0975,62.7014 56.9308,63.5348 55.5,64C 45.5,64.3333 35.5,64.6667 25.5,65C 15.238,68.8619 12.738,75.6953 18,85.5C 19.8333,86.6667 21.6667,87.8333 23.5,89C 42.1637,89.4999 60.8304,89.6666 79.5,89.5C 79.0423,66.7806 79.5423,44.1139 81,21.5C 85.1863,10.1434 93.0196,2.81003 104.5,-0.5 Z M 106.5,15.5 C 149.835,15.3333 193.168,15.5 236.5,16C 244.349,19.1973 248.016,25.0306 247.5,33.5C 235.757,33.0645 224.09,33.5645 212.5,35C 206.894,37.7713 203.894,42.2713 203.5,48.5C 175.831,48.3334 148.165,48.5 120.5,49C 114.552,51.4329 113.052,55.5996 116,61.5C 116.903,62.7014 118.069,63.5348 119.5,64C 147.498,64.5 175.498,64.6666 203.5,64.5C 203.5,72.8333 203.5,81.1667 203.5,89.5C 167.5,89.5 131.5,89.5 95.5,89.5C 95.3334,68.8306 95.5,48.164 96,27.5C 97.9363,22.0678 101.436,18.0678 106.5,15.5 Z M 219.5,49.5 C 243.5,49.5 267.5,49.5 291.5,49.5C 291.5,67.8333 291.5,86.1667 291.5,104.5C 267.5,104.5 243.5,104.5 219.5,104.5C 219.5,86.1667 219.5,67.8333 219.5,49.5 Z M 307.5,64.5 C 366.834,64.3333 426.168,64.5 485.5,65C 495.762,68.8619 498.262,75.6953 493,85.5C 491.167,86.6667 489.333,87.8333 487.5,89C 427.501,89.5 367.501,89.6667 307.5,89.5C 307.5,81.1667 307.5,72.8333 307.5,64.5 Z M 49.5,105.5 C 59.5,105.5 69.5,105.5 79.5,105.5C 82.1501,118.964 76.9834,127.297 64,130.5C 51.4981,126.85 46.6648,118.517 49.5,105.5 Z M 236.5,120.5 C 249.167,120.5 261.833,120.5 274.5,120.5C 272.632,126.576 270.466,132.576 268,138.5C 259.912,139.648 251.746,139.815 243.5,139C 240.739,132.982 238.406,126.815 236.5,120.5 Z"/></g>
<g><path style="opacity:0.931" fill="#000000" d="M 511.5,471.5 C 511.5,476.833 511.5,482.167 511.5,487.5C 509.735,493.022 506.902,498.022 503,502.5C 498.4,506.626 493.234,509.626 487.5,511.5C 332.833,511.5 178.167,511.5 23.5,511.5C 11.1667,507.833 3.16667,499.833 -0.5,487.5C -0.5,482.167 -0.5,476.833 -0.5,471.5C 3.1342,461.027 10.1342,453.527 20.5,449C 44.4504,447.706 68.4504,447.04 92.5,447C 69.383,426.93 60.2163,401.763 65,371.5C 74.5419,354.762 88.3752,349.929 106.5,357C 117.877,364.255 123.043,374.755 122,388.5C 130.226,408.2 143.726,413.034 162.5,403C 174.022,391.772 175.188,379.605 166,366.5C 157.582,359.263 147.749,355.763 136.5,356C 120.58,348.323 114.747,335.823 119,318.5C 122.167,310 128,304.167 136.5,301C 142.484,299.927 148.484,298.927 154.5,298C 169.595,290.975 174.762,279.475 170,263.5C 160.775,248.402 148.275,244.902 132.5,253C 125.16,258.644 120.993,266.144 120,275.5C 111.896,289.986 99.729,295.152 83.5,291C 71.2094,285.774 64.5427,276.44 63.5,263C 69.7609,225.739 91.0943,202.073 127.5,192C 166.366,185.188 196.866,198.022 219,230.5C 223.115,237.346 225.948,244.679 227.5,252.5C 225.909,259.963 221.575,262.129 214.5,259C 198.428,216.131 168.094,199.798 123.5,210C 99.7234,220.109 85.0567,237.776 79.5,263C 82.2454,274.872 89.2454,278.539 100.5,274C 103.106,272.062 104.939,269.562 106,266.5C 111.398,245.289 125.064,233.956 147,232.5C 171.903,234.903 185.736,248.569 188.5,273.5C 187.562,290.223 179.895,302.723 165.5,311C 157.336,313.644 149.002,315.644 140.5,317C 132.562,322.963 131.562,329.963 137.5,338C 139.167,339 140.833,340 142.5,341C 177.04,343.947 191.54,362.447 186,396.5C 175.401,419.881 157.568,428.381 132.5,422C 114.07,413.89 104.903,399.724 105,379.5C 99.2275,368.681 91.5609,367.014 82,374.5C 80.3415,377.309 79.1749,380.309 78.5,383.5C 80.9346,414.089 96.268,435.256 124.5,447C 161.462,456.482 189.295,444.982 208,412.5C 219.397,385.224 215.731,360.224 197,337.5C 193.757,331.483 193.757,325.483 197,319.5C 205.925,308.648 211.925,296.315 215,282.5C 220.842,277.96 225.509,278.96 229,285.5C 227.686,301.773 221.52,315.94 210.5,328C 233.882,358.947 236.715,391.78 219,426.5C 214.291,434.215 208.458,441.049 201.5,447C 219.5,447.667 237.5,447.667 255.5,447C 254.773,445.601 254.273,444.101 254,442.5C 253.333,365.833 253.333,289.167 254,212.5C 257.071,201.762 263.904,194.596 274.5,191C 298.488,189.091 322.488,189.091 346.5,191C 386,196.84 414.5,217.673 432,253.5C 449.162,293.767 452.162,335.1 441,377.5C 433.029,406.121 417.196,429.288 393.5,447C 424.5,447.333 455.5,447.667 486.5,448C 498.912,451.581 507.245,459.414 511.5,471.5 Z M 281.5,205.5 C 302.858,205.154 324.191,205.654 345.5,207C 383.146,213.971 408.646,235.471 422,271.5C 435.244,310.757 434.578,349.757 420,388.5C 407.337,417.834 385.837,437.334 355.5,447C 328.167,447.667 300.833,447.667 273.5,447C 272.54,445.581 271.707,444.081 271,442.5C 269.343,366.89 269.009,291.224 270,215.5C 272.21,210.112 276.043,206.779 281.5,205.5 Z M 26.5,463.5 C 179.167,463.333 331.834,463.5 484.5,464C 494.719,468.942 497.885,476.775 494,487.5C 491.509,490.832 488.342,493.332 484.5,495C 331.833,495.667 179.167,495.667 26.5,495C 15.5264,489.748 12.6931,481.582 18,470.5C 20.4412,467.546 23.2745,465.213 26.5,463.5 Z"/></g>
<g><path style="opacity:0.93" fill="#000000" d="M 300.5,232.5 C 365.608,224.445 400.442,253.112 405,318.5C 407.363,347.72 400.363,374.387 384,398.5C 364.948,419.69 341.115,428.356 312.5,424.5C 308.833,424.333 305.167,424.167 301.5,424C 300.069,423.535 298.903,422.701 298,421.5C 296.352,394.92 296.018,368.254 297,341.5C 301.667,336.167 306.333,336.167 311,341.5C 311.333,342.833 311.667,344.167 312,345.5C 312.5,366.497 312.667,387.497 312.5,408.5C 348.733,412.817 372.566,397.817 384,363.5C 393.091,332.413 390.424,302.413 376,273.5C 367.426,259.455 354.926,251.288 338.5,249C 329.506,248.5 320.506,248.334 311.5,248.5C 311.667,270.503 311.5,292.503 311,314.5C 308.487,318.212 304.987,319.378 300.5,318C 297.906,316.661 296.406,314.494 296,311.5C 295.333,287.167 295.333,262.833 296,238.5C 296.804,235.854 298.304,233.854 300.5,232.5 Z"/></g>
</svg>
