<?xml version="1.0" encoding="UTF-8"?>
<!DOCTYPE svg PUBLIC "-//W3C//DTD SVG 1.1//EN" "http://www.w3.org/Graphics/SVG/1.1/DTD/svg11.dtd">
<svg xmlns="http://www.w3.org/2000/svg" version="1.1" width="512px" height="512px" style="shape-rendering:geometricPrecision; text-rendering:geometricPrecision; image-rendering:optimizeQuality; fill-rule:evenodd; clip-rule:evenodd" xmlns:xlink="http://www.w3.org/1999/xlink">
<g><path style="opacity:0.94" fill="#000000" d="M 90.5,14.5 C 168.167,14.3333 245.834,14.5 323.5,15C 335.851,18.6856 343.351,26.8523 346,39.5C 346.667,68.8333 346.667,98.1667 346,127.5C 343.565,132.224 339.731,133.724 334.5,132C 333.333,130.833 332.167,129.667 331,128.5C 330.5,114.504 330.333,100.504 330.5,86.5C 248.167,86.5 165.833,86.5 83.5,86.5C 83.6667,185.834 83.5,285.167 83,384.5C 80.487,388.212 76.987,389.378 72.5,388C 69.9057,386.661 68.4057,384.494 68,381.5C 67.3333,268.5 67.3333,155.5 68,42.5C 69.589,28.2798 77.089,18.9465 90.5,14.5 Z M 93.5,30.5 C 169.167,30.3333 244.834,30.5 320.5,31C 325.428,32.9268 328.594,36.4268 330,41.5C 330.5,51.1609 330.666,60.8276 330.5,70.5C 248.167,70.5 165.833,70.5 83.5,70.5C 83.1302,60.1106 83.6302,49.7773 85,39.5C 86.6878,35.3148 89.5212,32.3148 93.5,30.5 Z"/></g>
<g><path style="opacity:0.919" fill="#000000" d="M 203.5,42.5 C 218.504,42.3334 233.504,42.5001 248.5,43C 254.259,46.8919 254.926,51.5586 250.5,57C 249.5,57.3333 248.5,57.6667 247.5,58C 233.167,58.6667 218.833,58.6667 204.5,58C 199.776,55.5647 198.276,51.7314 200,46.5C 200.69,44.6498 201.856,43.3164 203.5,42.5 Z"/></g>
<g><path style="opacity:0.919" fill="#000000" d="M 223.5,103.5 C 229.905,102.527 233.571,105.193 234.5,111.5C 219.629,150.28 204.462,188.946 189,227.5C 186.005,230.265 182.505,231.098 178.5,230C 176.667,229.5 175.5,228.333 175,226.5C 174.333,223.833 174.333,221.167 175,218.5C 189.863,181.579 204.529,144.579 219,107.5C 220.397,105.93 221.897,104.596 223.5,103.5 Z"/></g>
<g><path style="opacity:0.911" fill="#000000" d="M 151.5,127.5 C 160.161,126.329 163.994,129.996 163,138.5C 154.197,148.304 145.03,157.804 135.5,167C 145.401,176.231 154.567,186.064 163,196.5C 163.021,206.116 158.521,208.949 149.5,205C 139.03,193.529 128.197,182.363 117,171.5C 115,168.5 115,165.5 117,162.5C 128.702,150.965 140.202,139.298 151.5,127.5 Z"/></g>
<g><path style="opacity:0.912" fill="#000000" d="M 255.5,127.5 C 259.219,127.002 262.553,127.836 265.5,130C 275.637,141.137 286.137,151.971 297,162.5C 299.037,166.334 298.704,170.001 296,173.5C 285.5,184 275,194.5 264.5,205C 254.11,208.601 249.943,205.101 252,194.5C 261.014,185.652 269.848,176.652 278.5,167.5C 270.181,158.681 261.681,150.014 253,141.5C 249.383,135.979 250.216,131.313 255.5,127.5 Z"/></g>
<g><path style="opacity:0.934" fill="#000000" d="M 319.5,183.5 C 332.266,183.039 344.933,183.539 357.5,185C 358.701,185.903 359.535,187.069 360,188.5C 361.114,194.682 362.28,200.848 363.5,207C 367.403,209.536 371.57,211.703 376,213.5C 380.5,209.667 385,205.833 389.5,202C 392.366,200.543 395.366,200.21 398.5,201C 406.97,208.469 415.137,216.302 423,224.5C 424.457,227.366 424.79,230.366 424,233.5C 420.29,239.087 416.457,244.587 412.5,250C 414.5,254 416.5,258 418.5,262C 424.5,262.667 430.5,263.333 436.5,264C 438.848,264.346 440.681,265.513 442,267.5C 443.604,279.429 443.937,291.429 443,303.5C 442.261,306.573 440.428,308.74 437.5,310C 430.84,311.277 424.173,312.443 417.5,313.5C 416.747,317.677 415.414,321.677 413.5,325.5C 417.667,331.167 421.833,336.833 426,342.5C 426.706,344.971 426.373,347.305 425,349.5C 416.779,357.721 408.613,365.887 400.5,374C 398.167,374.667 395.833,374.667 393.5,374C 387.724,370.556 382.224,366.723 377,362.5C 373.24,364.296 369.407,365.962 365.5,367.5C 364.326,375.252 362.826,382.918 361,390.5C 356.528,393.056 351.695,394.056 346.5,393.5C 346.667,419.502 346.5,445.502 346,471.5C 343.351,484.148 335.851,492.314 323.5,496C 244.776,496.991 166.11,496.658 87.5,495C 77.8366,491.336 71.6699,484.503 69,474.5C 67.4096,454.871 67.0762,435.205 68,415.5C 68.3459,413.152 69.5125,411.319 71.5,410C 157.751,408.505 244.085,408.005 330.5,408.5C 330.5,403.5 330.5,398.5 330.5,393.5C 325.92,393.923 321.753,392.923 318,390.5C 315.874,383.3 314.207,375.967 313,368.5C 309.225,366.74 305.392,365.073 301.5,363.5C 296.073,366.759 291.073,370.592 286.5,375C 282.634,377.12 278.967,376.786 275.5,374C 267.635,366.47 260.135,358.636 253,350.5C 252.333,347.833 252.333,345.167 253,342.5C 256.763,337.299 260.263,331.966 263.5,326.5C 262.003,322.838 260.503,319.172 259,315.5C 252.246,314.117 245.413,312.951 238.5,312C 236.333,311.167 234.833,309.667 234,307.5C 233.04,294.738 233.373,282.071 235,269.5C 235.833,268.667 236.667,267.833 237.5,267C 244.558,265.713 251.558,264.213 258.5,262.5C 260.038,258.593 261.704,254.76 263.5,251C 259.546,246.258 255.713,241.424 252,236.5C 250.543,233.634 250.21,230.634 251,227.5C 259.167,219.333 267.333,211.167 275.5,203C 278.5,201 281.5,201 284.5,203C 289.404,206.906 294.57,210.406 300,213.5C 304.452,212.248 308.452,210.248 312,207.5C 312.511,200.746 313.511,194.079 315,187.5C 316.25,185.807 317.75,184.473 319.5,183.5 Z M 329.5,199.5 C 334.875,199.172 340.208,199.505 345.5,200.5C 346.772,206.465 347.939,212.465 349,218.5C 349.833,219.5 350.667,220.5 351.5,221.5C 360.277,224.147 368.777,227.481 377,231.5C 383.094,228.535 388.594,224.701 393.5,220C 398.327,222.482 402.327,226.149 405.5,231C 402.682,235.156 399.848,239.323 397,243.5C 396.015,245.366 395.515,247.366 395.5,249.5C 398.409,257.052 401.242,264.718 404,272.5C 404.935,275.102 406.768,276.602 409.5,277C 415.158,277.74 420.825,278.406 426.5,279C 427.473,284.407 427.807,289.907 427.5,295.5C 421.138,296.449 414.804,297.616 408.5,299C 406.333,299.833 404.833,301.333 404,303.5C 401.716,311.395 398.883,319.062 395.5,326.5C 397.724,332.599 401.224,337.932 406,342.5C 406.667,343.5 406.667,344.5 406,345.5C 402.651,349.016 399.151,352.349 395.5,355.5C 390.007,351.008 384.007,347.341 377.5,344.5C 369.827,348.504 361.827,351.67 353.5,354C 352.333,355.167 351.167,356.333 350,357.5C 348.91,364.142 348.077,370.808 347.5,377.5C 342.156,377.666 336.823,377.499 331.5,377C 330.315,370.061 328.648,363.228 326.5,356.5C 318.741,353.298 311.075,349.798 303.5,346C 301.167,345.333 298.833,345.333 296.5,346C 291.576,349.713 286.742,353.546 282,357.5C 278.167,353.667 274.333,349.833 270.5,346C 273.211,342.078 276.045,338.244 279,334.5C 280.552,332.232 281.385,329.732 281.5,327C 277.677,319.171 274.51,311.004 272,302.5C 271.097,301.299 269.931,300.465 268.5,300C 262.205,298.838 255.871,298.004 249.5,297.5C 249.5,291.833 249.5,286.167 249.5,280.5C 255.536,279.994 261.536,279.161 267.5,278C 269.286,277.215 270.786,276.049 272,274.5C 274.475,266.053 277.641,257.886 281.5,250C 281.375,248.373 280.875,246.873 280,245.5C 276.379,241.09 272.879,236.59 269.5,232C 273.333,228.167 277.167,224.333 281,220.5C 286.28,225.467 292.28,229.134 299,231.5C 307.425,228.04 315.925,224.707 324.5,221.5C 325.584,220.335 326.417,219.002 327,217.5C 327.655,211.425 328.488,205.425 329.5,199.5 Z M 335.5,263.5 C 354.456,264.62 363.29,274.62 362,293.5C 359.741,301.921 354.574,307.588 346.5,310.5C 346.666,300.494 346.5,290.494 346,280.5C 343.459,275.931 339.625,274.431 334.5,276C 333.333,277.167 332.167,278.333 331,279.5C 330.667,290.167 330.333,300.833 330,311.5C 315.224,303.629 310.891,291.962 317,276.5C 321.611,269.792 327.777,265.459 335.5,263.5 Z M 83.5,424.5 C 165.833,424.5 248.167,424.5 330.5,424.5C 330.667,439.504 330.5,454.504 330,469.5C 328.594,474.573 325.428,478.073 320.5,480C 244.833,480.667 169.167,480.667 93.5,480C 88.0042,477.187 84.8375,472.687 84,466.5C 83.5001,452.504 83.3334,438.504 83.5,424.5 Z"/></g>
<g><path style="opacity:0.929" fill="#000000" d="M 334.5,247.5 C 365.446,249.277 379.946,265.611 378,296.5C 369.96,321.941 352.794,332.107 326.5,327C 301.703,316.568 293.203,298.401 301,272.5C 307.825,258.188 318.991,249.854 334.5,247.5 Z M 335.5,263.5 C 327.777,265.459 321.611,269.792 317,276.5C 310.891,291.962 315.224,303.629 330,311.5C 330.333,300.833 330.667,290.167 331,279.5C 332.167,278.333 333.333,277.167 334.5,276C 339.625,274.431 343.459,275.931 346,280.5C 346.5,290.494 346.666,300.494 346.5,310.5C 354.574,307.588 359.741,301.921 362,293.5C 363.29,274.62 354.456,264.62 335.5,263.5 Z"/></g>
<g><path style="opacity:0.928" fill="#000000" d="M 170.5,447.5 C 194.836,447.333 219.169,447.5 243.5,448C 249.052,450.619 250.552,454.786 248,460.5C 247.097,461.701 245.931,462.535 244.5,463C 219.5,463.667 194.5,463.667 169.5,463C 163.277,457.631 163.61,452.465 170.5,447.5 Z"/></g>
</svg>
