<svg width="25" height="21" viewBox="0 0 25 21" fill="none" xmlns="http://www.w3.org/2000/svg">
<g filter="url(#filter0_d_205_15)">
<path d="M6.85447 11.8557L6.99338 12.336L6.85447 11.8557ZM17.624 1.43692L17.1486 1.28219L17.1486 1.28219L17.624 1.43692ZM18.2118 0.773266C18.0866 0.527163 17.7855 0.429192 17.5394 0.554443L13.5289 2.59551C13.2828 2.72076 13.1849 3.0218 13.3101 3.26791C13.4354 3.51401 13.7364 3.61198 13.9825 3.48673L17.5474 1.67245L19.3617 5.23733C19.4869 5.48343 19.788 5.5814 20.0341 5.45615C20.2802 5.3309 20.3782 5.02986 20.2529 4.78376L18.2118 0.773266ZM5.13891 12.8723L6.99338 12.336L6.71556 11.3753L4.86109 11.9117L5.13891 12.8723ZM18.0995 1.59166L18.2417 1.15478L17.2908 0.84532L17.1486 1.28219L18.0995 1.59166ZM6.99338 12.336C12.2473 10.8166 16.407 6.79242 18.0995 1.59166L17.1486 1.28219C15.5586 6.16776 11.6511 9.948 6.71556 11.3753L6.99338 12.336Z" fill="#222222"/>
</g>
<defs>
<filter id="filter0_d_205_15" x="0.861084" y="0.5" width="23.4463" height="20.3723" filterUnits="userSpaceOnUse" color-interpolation-filters="sRGB">
<feFlood flood-opacity="0" result="BackgroundImageFix"/>
<feColorMatrix in="SourceAlpha" type="matrix" values="0 0 0 0 0 0 0 0 0 0 0 0 0 0 0 0 0 0 127 0" result="hardAlpha"/>
<feOffset dy="4"/>
<feGaussianBlur stdDeviation="2"/>
<feComposite in2="hardAlpha" operator="out"/>
<feColorMatrix type="matrix" values="0 0 0 0 0 0 0 0 0 0 0 0 0 0 0 0 0 0 0.25 0"/>
<feBlend mode="normal" in2="BackgroundImageFix" result="effect1_dropShadow_205_15"/>
<feBlend mode="normal" in="SourceGraphic" in2="effect1_dropShadow_205_15" result="shape"/>
</filter>
</defs>
</svg>
