<?xml version="1.0" encoding="UTF-8"?>
<!DOCTYPE svg PUBLIC "-//W3C//DTD SVG 1.1//EN" "http://www.w3.org/Graphics/SVG/1.1/DTD/svg11.dtd">
<svg xmlns="http://www.w3.org/2000/svg" version="1.1" width="512px" height="512px" style="shape-rendering:geometricPrecision; text-rendering:geometricPrecision; image-rendering:optimizeQuality; fill-rule:evenodd; clip-rule:evenodd" xmlns:xlink="http://www.w3.org/1999/xlink">
<g><path style="opacity:0.934" fill="#000000" d="M 511.5,334.5 C 511.5,347.5 511.5,360.5 511.5,373.5C 509.388,376.063 506.721,377.896 503.5,379C 497.804,379.17 492.138,379.67 486.5,380.5C 484.616,387.148 481.95,393.481 478.5,399.5C 482.151,403.652 485.984,407.652 490,411.5C 492.582,417.512 491.582,422.845 487,427.5C 480.86,433.64 474.694,439.806 468.5,446C 464.472,449.096 460.139,449.763 455.5,448C 450.989,444.153 446.489,440.32 442,436.5C 435.656,439.422 429.156,441.922 422.5,444C 421.687,450.419 421.187,456.919 421,463.5C 419.749,466.381 417.583,468.214 414.5,469C 402.5,469.667 390.5,469.667 378.5,469C 375.417,468.214 373.251,466.381 372,463.5C 370.939,456.998 370.106,450.498 369.5,444C 363.173,441.891 357.006,439.391 351,436.5C 346.879,439.618 343.046,443.118 339.5,447C 334.833,450.333 330.167,450.333 325.5,447C 319.5,441 313.5,435 307.5,429C 214.5,428.667 121.5,428.333 28.5,428C 13.4204,424.418 3.7537,415.251 -0.5,400.5C -0.5,315.833 -0.5,231.167 -0.5,146.5C 3.29874,142.075 7.79874,141.409 13,144.5C 13.9734,146.392 14.6401,148.392 15,150.5C 15.3333,232.833 15.6667,315.167 16,397.5C 20.9628,410.398 30.1295,414.898 43.5,411C 50.2658,407.904 54.4324,402.737 56,395.5C 56.3333,321.167 56.6667,246.833 57,172.5C 60.5243,159.488 69.0243,152.821 82.5,152.5C 82.5,133.5 82.5,114.5 82.5,95.5C 62.4972,95.3334 42.4972,95.5 22.5,96C 19.4173,96.786 17.2506,98.6193 16,101.5C 15.8054,107.564 15.1387,113.564 14,119.5C 9.17064,124.768 4.33731,124.768 -0.5,119.5C -0.5,112.5 -0.5,105.5 -0.5,98.5C 2.75863,88.7444 9.4253,82.5777 19.5,80C 40.4974,79.5 61.4974,79.3334 82.5,79.5C 80.3628,66.2728 84.0295,55.1061 93.5,46C 96.618,44.107 99.9513,42.7736 103.5,42C 202.833,41.3333 302.167,41.3333 401.5,42C 412.77,44.9366 419.603,52.1032 422,63.5C 422.5,93.1648 422.667,122.831 422.5,152.5C 434.212,152.437 442.378,157.771 447,168.5C 448.579,180.108 448.912,191.775 448,203.5C 446.471,206.516 443.971,207.849 440.5,207.5C 436.823,207.664 434.323,205.997 433,202.5C 432.667,193.167 432.333,183.833 432,174.5C 430.833,172 429,170.167 426.5,169C 310.5,168.333 194.5,168.333 78.5,169C 75.6193,170.251 73.786,172.417 73,175.5C 72.6667,249.5 72.3333,323.5 72,397.5C 71.348,402.791 69.5146,407.624 66.5,412C 145.167,412.667 223.833,412.667 302.5,412C 306.18,407.655 309.847,403.322 313.5,399C 310.45,392.737 308.116,386.237 306.5,379.5C 285.089,383.922 276.422,375.422 280.5,354C 276.479,332.521 285.146,324.021 306.5,328.5C 307.882,321.191 310.549,314.357 314.5,308C 310.667,304.167 306.833,300.333 303,296.5C 301.496,292.961 301.163,289.295 302,285.5C 310.203,275.63 319.369,266.797 329.5,259C 332.594,258.348 335.594,258.682 338.5,260C 342.378,264.214 346.545,268.048 351,271.5C 357.098,268.285 363.431,265.618 370,263.5C 370.333,258.167 370.667,252.833 371,247.5C 371.606,244.452 373.106,241.952 375.5,240C 388.739,238.371 402.072,238.038 415.5,239C 418,240.167 419.833,242 421,244.5C 421.169,250.859 421.669,257.193 422.5,263.5C 425.727,264.909 429.06,265.909 432.5,266.5C 432.333,255.162 432.5,243.828 433,232.5C 435.435,227.776 439.269,226.276 444.5,228C 445.416,228.374 446.25,228.874 447,229.5C 448.292,241.07 448.958,252.737 449,264.5C 454.267,258.317 460.434,257.151 467.5,261C 476.069,268.9 483.903,277.4 491,286.5C 491.701,289.928 491.368,293.262 490,296.5C 485.984,300.348 482.151,304.348 478.5,308.5C 482.155,314.804 484.822,321.471 486.5,328.5C 492.509,328.334 498.509,328.501 504.5,329C 507.621,329.967 509.954,331.8 511.5,334.5 Z M 106.5,57.5 C 203.834,57.3333 301.167,57.5 398.5,58C 402.333,59.1667 404.833,61.6667 406,65.5C 406.5,94.4981 406.667,123.498 406.5,152.5C 303.833,152.5 201.167,152.5 98.5,152.5C 98.3334,123.831 98.5,95.1647 99,66.5C 99.9511,62.0611 102.451,59.0611 106.5,57.5 Z M 386.5,254.5 C 392.833,254.5 399.167,254.5 405.5,254.5C 405.139,260.593 405.639,266.593 407,272.5C 408.251,275.381 410.417,277.214 413.5,278C 423.756,280.883 433.589,284.716 443,289.5C 449.817,287.702 455.317,283.869 459.5,278C 460.167,277.333 460.833,277.333 461.5,278C 465.5,282 469.5,286 473.5,290C 470,293.5 466.5,297 463,300.5C 462.04,302.98 461.207,305.48 460.5,308C 466.158,318.296 470.658,329.13 474,340.5C 475.579,342.041 477.413,343.208 479.5,344C 485.157,344.499 490.824,344.666 496.5,344.5C 496.5,350.833 496.5,357.167 496.5,363.5C 490.491,363.334 484.491,363.501 478.5,364C 476.714,364.785 475.214,365.951 474,367.5C 470.655,378.882 466.155,389.715 460.5,400C 461.207,402.52 462.04,405.02 463,407.5C 466.349,410.682 469.516,414.015 472.5,417.5C 468.515,421.985 464.349,426.318 460,430.5C 456.833,427.333 453.667,424.167 450.5,421C 448.232,419.448 445.732,418.615 443,418.5C 433.127,423.016 422.961,426.849 412.5,430C 408.835,431.668 406.668,434.501 406,438.5C 405.501,443.489 405.334,448.489 405.5,453.5C 399.167,453.5 392.833,453.5 386.5,453.5C 386.666,447.491 386.499,441.491 386,435.5C 384.749,432.619 382.583,430.786 379.5,430C 369.375,426.739 359.541,422.906 350,418.5C 347.747,418.631 345.581,419.131 343.5,420C 340.167,423.333 336.833,426.667 333.5,430C 332.833,430.667 332.167,430.667 331.5,430C 327.5,426 323.5,422 319.5,418C 322.333,415.167 325.167,412.333 328,409.5C 330.281,406.937 331.448,403.937 331.5,400.5C 326.796,389.749 322.629,378.749 319,367.5C 317.421,365.959 315.587,364.792 313.5,364C 307.843,363.501 302.176,363.334 296.5,363.5C 296.5,357.167 296.5,350.833 296.5,344.5C 301.844,344.666 307.177,344.499 312.5,344C 314.421,343.64 316.088,342.806 317.5,341.5C 321.321,331.207 325.821,321.207 331,311.5C 331.965,307.218 331.298,303.218 329,299.5C 325.833,296.333 322.667,293.167 319.5,290C 323.682,285.651 328.015,281.485 332.5,277.5C 335.985,280.484 339.318,283.651 342.5,287C 344.866,288.233 347.366,289.066 350,289.5C 360.095,284.371 370.595,280.205 381.5,277C 383.378,275.457 384.878,273.624 386,271.5C 386.499,265.843 386.666,260.176 386.5,254.5 Z M 389.5,325.5 C 415.389,324.553 426.889,336.886 424,362.5C 414.661,382.127 400.161,387.294 380.5,378C 366.256,366.388 363.756,352.555 373,336.5C 377.632,331.34 383.132,327.673 389.5,325.5 Z M 108.5,346.5 C 139.168,346.333 169.835,346.5 200.5,347C 201.651,356.756 201.818,366.589 201,376.5C 170.238,377.662 139.405,377.829 108.5,377C 107.178,366.833 107.178,356.667 108.5,346.5 Z"/></g>
<g><path style="opacity:0.917" fill="#000000" d="M 184.5,73.5 C 193.164,72.4996 201.164,74.3329 208.5,79C 213.3,87.933 210.633,92.5997 200.5,93C 190.545,87.0952 182.378,88.9285 176,98.5C 173.067,110.63 177.734,117.963 190,120.5C 194.977,118.328 199.811,115.995 204.5,113.5C 211.666,114.511 214.166,118.511 212,125.5C 198.341,139.159 183.841,139.993 168.5,128C 156.63,114.755 155.463,100.588 165,85.5C 170.253,79.2985 176.753,75.2985 184.5,73.5 Z"/></g>
<g><path style="opacity:0.934" fill="#000000" d="M 239.5,73.5 C 243.516,72.8999 247.016,73.8999 250,76.5C 253.129,84.6801 255.795,93.0134 258,101.5C 260.469,93.0941 263.135,84.7608 266,76.5C 271.281,72.301 276.281,72.6343 281,77.5C 285.521,95.2954 288.521,113.295 290,131.5C 288.607,134.366 286.274,135.699 283,135.5C 280.186,135.592 277.853,134.592 276,132.5C 274.345,126.24 273.012,119.907 272,113.5C 269.847,119.775 267.847,126.108 266,132.5C 260.334,137.92 255.001,137.587 250,131.5C 248.333,125.833 246.667,120.167 245,114.5C 243.297,120.004 241.963,125.671 241,131.5C 236.625,136.381 231.958,136.715 227,132.5C 226.077,130.966 225.577,129.299 225.5,127.5C 228.347,110.763 231.514,94.0967 235,77.5C 236.397,75.9297 237.897,74.5964 239.5,73.5 Z"/></g>
<g><path style="opacity:0.921" fill="#000000" d="M 317.5,73.5 C 327.008,72.3343 335.508,74.6677 343,80.5C 346.542,87.7359 344.542,92.4025 337,94.5C 332.782,92.1442 328.282,90.4775 323.5,89.5C 321.312,89.3073 319.645,90.1406 318.5,92C 325.167,95 331.833,98 338.5,101C 349.155,111.278 349.155,121.611 338.5,132C 325.179,138.479 313.013,136.645 302,126.5C 298.34,116.961 301.507,112.794 311.5,114C 315.286,117.226 319.619,119.393 324.5,120.5C 327.147,120.071 329.147,118.738 330.5,116.5C 330.023,115.522 329.357,114.689 328.5,114C 322.085,111.528 315.752,108.862 309.5,106C 300.019,96.0435 300.353,86.3768 310.5,77C 312.925,75.7874 315.259,74.6207 317.5,73.5 Z"/></g>
<g><path style="opacity:0.92" fill="#000000" d="M 97.5,187.5 C 116.503,187.333 135.503,187.5 154.5,188C 162.067,192.58 162.401,197.58 155.5,203C 135.833,203.667 116.167,203.667 96.5,203C 91.4319,200.017 90.2652,195.851 93,190.5C 94.4087,189.219 95.9087,188.219 97.5,187.5 Z"/></g>
<g><path style="opacity:0.926" fill="#000000" d="M 97.5,222.5 C 125.502,222.333 153.502,222.5 181.5,223C 186.069,225.541 187.569,229.375 186,234.5C 184.833,235.667 183.667,236.833 182.5,238C 153.833,238.667 125.167,238.667 96.5,238C 91.4319,235.017 90.2652,230.851 93,225.5C 94.4087,224.219 95.9087,223.219 97.5,222.5 Z"/></g>
<g><path style="opacity:0.924" fill="#000000" d="M 394.5,308.5 C 422.656,310.156 438.323,324.99 441.5,353C 439.722,381.278 424.722,396.445 396.5,398.5C 368.5,396.5 353.5,381.5 351.5,353.5C 353.957,327.045 368.291,312.045 394.5,308.5 Z M 389.5,325.5 C 383.132,327.673 377.632,331.34 373,336.5C 363.756,352.555 366.256,366.388 380.5,378C 400.161,387.294 414.661,382.127 424,362.5C 426.889,336.886 415.389,324.553 389.5,325.5 Z"/></g>
<g><path style="opacity:0.935" fill="#000000" d="M 105.5,330.5 C 139.562,330.021 173.562,330.521 207.5,332C 212.144,334.641 215.311,338.475 217,343.5C 217.944,356.903 217.611,370.236 216,383.5C 213.359,388.144 209.525,391.311 204.5,393C 170.106,393.979 135.773,393.646 101.5,392C 96.4488,389.28 93.2822,385.113 92,379.5C 91.3333,367.833 91.3333,356.167 92,344.5C 94.0166,337.318 98.5166,332.652 105.5,330.5 Z M 108.5,346.5 C 107.178,356.667 107.178,366.833 108.5,377C 139.405,377.829 170.238,377.662 201,376.5C 201.818,366.589 201.651,356.756 200.5,347C 169.835,346.5 139.168,346.333 108.5,346.5 Z"/></g>
</svg>
