<svg width="81" height="81" viewBox="0 0 81 81" fill="none" xmlns="http://www.w3.org/2000/svg">
<g clip-path="url(#clip0_206_210)">
<path opacity="0.945" fill-rule="evenodd" clip-rule="evenodd" d="M80.2749 14.0156C80.2749 29.9627 80.2749 45.9097 80.2749 61.8568C79.7013 63.4973 78.5543 64.5136 76.8338 64.9055C67.9184 64.9837 59.0029 65.0098 50.0872 64.9837C50.0872 68.0063 50.0872 71.0291 50.0872 74.0517C51.4438 74.0257 52.7994 74.0517 54.1539 74.1298C55.0785 75.1375 54.9221 75.9192 53.6847 76.475C44.6128 76.5793 35.5408 76.5793 26.4689 76.475C25.2299 75.9114 25.0735 75.1296 25.9996 74.1298C27.3542 74.0517 28.7098 74.0257 30.0664 74.0517C30.0664 71.0291 30.0664 68.0063 30.0664 64.9837C21.255 65.0098 12.4437 64.9837 3.63261 64.9055C1.91205 64.5136 0.765024 63.4973 0.191528 61.8568C0.191528 45.9097 0.191528 29.9627 0.191528 14.0156C0.736336 12.5071 1.77909 11.4908 3.31978 10.9669C8.58568 10.8626 13.8516 10.8626 19.1175 10.9669C20.042 11.9745 19.8856 12.7562 18.6482 13.312C13.6952 13.3641 8.7421 13.4163 3.78902 13.4684C3.34586 13.7029 3.00696 14.0416 2.77234 14.4846C2.53996 26.9865 2.46175 39.494 2.53772 52.0072C22.715 51.981 42.8922 52.0072 63.0695 52.0853C63.9998 52.4657 64.2344 53.1172 63.7733 54.0396C63.6321 54.2274 63.4497 54.3578 63.2259 54.4305C42.9965 54.5087 22.7672 54.5348 2.53772 54.5087C2.51166 56.5418 2.53774 58.5742 2.61593 60.6061C2.69044 61.5673 3.18574 62.1667 4.10185 62.404C28.1894 62.5083 52.277 62.5083 76.3645 62.404C77.2807 62.1667 77.776 61.5673 77.8505 60.6061C77.9287 58.5742 77.9548 56.5418 77.9287 54.5087C74.6435 54.5348 71.3589 54.5087 68.0747 54.4305C67.4839 53.9685 67.3015 53.3692 67.5272 52.6325C67.7171 52.3904 67.9517 52.2081 68.2311 52.0853C71.4632 52.0072 74.6958 51.981 77.9287 52.0072C77.9548 39.7601 77.9287 27.5132 77.8505 15.2663C77.8322 14.4217 77.4411 13.8224 76.6774 13.4684C70.2124 13.3641 63.7472 13.3641 57.2822 13.4684C61.823 19.8361 62.8397 26.7412 60.3322 34.1839C55.9599 44.0181 48.3739 48.6303 37.5742 48.0204C29.549 46.8239 23.7878 42.5765 20.2906 35.2784C17.1005 27.0806 18.1954 19.5239 23.5752 12.6085C30.1505 5.58894 38.0494 3.4783 47.2718 6.27654C48.1314 7.08162 48.0793 7.81123 47.1154 8.46536C45.9509 8.40956 44.8039 8.2011 43.6743 7.83998C34.8695 6.67092 28.1176 9.82386 23.4188 17.2988C19.8931 24.2916 20.2582 31.0666 24.5137 37.6235C30.5381 45.0846 38.1241 47.2995 47.2718 44.2681C55.4608 40.382 59.397 33.8938 59.0809 24.8033C58.6799 20.9407 57.2722 17.5011 54.8578 14.4846C53.4961 13.0191 52.0363 11.6642 50.4782 10.4197C50.2594 8.95464 50.8589 8.40743 52.277 8.77804C53.1685 9.38064 54.0027 10.0581 54.7796 10.8105C62.2353 10.8626 69.6909 10.9148 77.1466 10.9669C78.6873 11.4908 79.7301 12.5071 80.2749 14.0156ZM32.569 20.8947C33.7682 20.8947 34.9672 20.8947 36.1665 20.8947C36.239 21.8908 36.3434 22.8809 36.4793 23.8652C35.337 24.0211 34.1899 24.0733 33.0382 24.0216C32.8818 22.9796 32.7254 21.9372 32.569 20.8947ZM38.6691 20.8947C39.816 20.8947 40.9632 20.8947 42.1101 20.8947C42.1059 21.94 42.0537 22.9822 41.9537 24.0216C40.9632 24.0216 39.9725 24.0216 38.9819 24.0216C38.8697 22.9808 38.7654 21.9386 38.6691 20.8947ZM44.7692 20.8947C45.9161 20.8947 47.0633 20.8947 48.2102 20.8947C48.0538 21.937 47.8974 22.9792 47.741 24.0216C46.6461 24.0216 45.5512 24.0216 44.4563 24.0216C44.5314 22.9691 44.6356 21.9267 44.7692 20.8947ZM33.6639 26.5231C34.6544 26.5231 35.6451 26.5231 36.6357 26.5231C36.6878 27.5654 36.74 28.6076 36.7921 29.65C35.9057 29.65 35.0195 29.65 34.1331 29.65C33.9362 28.6137 33.7798 27.5715 33.6639 26.5231ZM39.1383 26.5231C40.0247 26.5231 40.9109 26.5231 41.7973 26.5231C41.7247 27.5192 41.6204 28.5093 41.4845 29.4936C40.7619 29.6489 40.0321 29.7011 39.2947 29.65C39.2614 28.6065 39.2093 27.5642 39.1383 26.5231ZM44.2999 26.5231C45.2919 26.4971 46.2825 26.5231 47.2718 26.6013C46.9938 27.5994 46.7853 28.6156 46.6461 29.65C45.812 29.65 44.9777 29.65 44.1435 29.65C44.1363 28.6039 44.1886 27.5617 44.2999 26.5231ZM32.569 64.9837C37.5742 64.9837 42.5794 64.9837 47.5846 64.9837C47.5846 68.0063 47.5846 71.0291 47.5846 74.0517C42.5794 74.0517 37.5742 74.0517 32.569 74.0517C32.569 71.0291 32.569 68.0063 32.569 64.9837Z" fill="black"/>
<path opacity="0.941" fill-rule="evenodd" clip-rule="evenodd" d="M27.4075 14.7973C30.1631 14.4252 31.7273 15.5977 32.0998 18.315C38.0435 18.3671 43.9872 18.4193 49.9309 18.4714C50.4783 18.6016 50.8173 18.9404 50.9476 19.4876C50.4247 23.0923 49.799 26.6882 49.0706 30.2754C49.0123 30.8671 48.8299 31.4143 48.5232 31.917C43.8963 32.123 39.2562 32.2271 34.6024 32.2297C34.7881 32.9751 34.9445 33.7307 35.0717 34.4966C39.1908 34.4705 43.3098 34.4966 47.4283 34.5748C48.6672 35.1384 48.8236 35.9202 47.8975 36.92C47.3762 36.972 46.8547 37.0243 46.3334 37.0763C47.1463 38.4664 46.8855 39.613 45.5513 40.5159C43.7271 40.9863 42.6322 40.3087 42.2667 38.4834C42.2986 37.9706 42.455 37.5016 42.7359 37.0763C41.2733 36.9462 39.8135 36.9723 38.3563 37.1545C39.1741 39.1158 38.5484 40.3145 36.4794 40.7504C34.4018 40.2968 33.7761 39.0982 34.6024 37.1545C34.1947 37.0266 33.7775 36.9484 33.3511 36.92C33.0403 36.7138 32.8578 36.4272 32.8037 36.0601C31.6968 29.7987 30.4716 23.5709 29.128 17.377C28.4503 17.3249 27.7724 17.2727 27.0946 17.2206C26.191 16.2582 26.2954 15.4504 27.4075 14.7973ZM32.5691 20.8947C32.7255 21.9372 32.8819 22.9796 33.0383 24.0216C34.19 24.0733 35.3371 24.0211 36.4794 23.8652C36.3435 22.8809 36.2391 21.8908 36.1666 20.8947C34.9673 20.8947 33.7683 20.8947 32.5691 20.8947ZM38.6692 20.8947C38.7655 21.9386 38.8698 22.9808 38.982 24.0216C39.9726 24.0216 40.9633 24.0216 41.9538 24.0216C42.0538 22.9822 42.106 21.94 42.1103 20.8947C40.9633 20.8947 39.8161 20.8947 38.6692 20.8947ZM44.7693 20.8947C44.6357 21.9267 44.5315 22.9691 44.4564 24.0216C45.5513 24.0216 46.6462 24.0216 47.7411 24.0216C47.8975 22.9792 48.0539 21.9371 48.2103 20.8947C47.0634 20.8947 45.9162 20.8947 44.7693 20.8947ZM33.664 26.5231C33.7799 27.5715 33.9363 28.6137 34.1332 29.65C35.0196 29.65 35.9058 29.65 36.7922 29.65C36.7401 28.6076 36.6879 27.5654 36.6358 26.5231C35.6452 26.5231 34.6545 26.5231 33.664 26.5231ZM39.1384 26.5231C39.2094 27.5642 39.2615 28.6065 39.2948 29.65C40.0322 29.7011 40.762 29.6489 41.4846 29.4936C41.6205 28.5093 41.7248 27.5192 41.7974 26.5231C40.911 26.5231 40.0248 26.5231 39.1384 26.5231ZM44.3 26.5231C44.1887 27.5617 44.1364 28.6039 44.1436 29.65C44.9778 29.65 45.8121 29.65 46.6462 29.65C46.7854 28.6156 46.9939 27.5994 47.2719 26.6013C46.2826 26.5231 45.292 26.4971 44.3 26.5231Z" fill="black"/>
<path opacity="0.929" fill-rule="evenodd" clip-rule="evenodd" d="M69.326 17.6115C70.0737 17.4772 70.6211 17.7378 70.9683 18.3932C71.0465 19.4864 71.0725 20.5808 71.0465 21.6764C72.1427 21.6505 73.2376 21.6764 74.3312 21.7546C75.0459 22.1519 75.2805 22.7513 75.0351 23.5525C74.8525 23.735 74.6702 23.9173 74.4876 24.0998C73.3417 24.1779 72.1948 24.2039 71.0465 24.1779C71.0725 25.2736 71.0465 26.368 70.9683 27.4612C70.5875 28.1997 69.9878 28.4342 69.1696 28.1647C68.9871 27.9822 68.8047 27.7999 68.6221 27.6175C68.5439 26.4721 68.518 25.3256 68.5439 24.1779C67.3957 24.2039 66.2487 24.1779 65.1029 24.0998C64.5121 23.6378 64.3297 23.0385 64.5554 22.3018C64.7453 22.0596 64.9799 21.8773 65.2593 21.7546C66.3529 21.6764 67.4478 21.6505 68.5439 21.6764C68.518 20.5808 68.5439 19.4864 68.6221 18.3932C68.7825 18.0513 69.0171 17.7906 69.326 17.6115Z" fill="black"/>
<path opacity="0.921" fill-rule="evenodd" clip-rule="evenodd" d="M7.2301 41.3758C9.94175 41.3497 12.6529 41.3758 15.3636 41.4539C15.9442 41.8468 16.1265 42.394 15.911 43.0955C15.7016 43.5011 15.3627 43.7356 14.8943 43.7991C12.496 43.9034 10.0977 43.9034 7.69934 43.7991C6.73692 43.57 6.39802 42.9708 6.68266 42.0011C6.84406 41.7624 7.02655 41.554 7.2301 41.3758Z" fill="black"/>
<path opacity="0.927" fill-rule="evenodd" clip-rule="evenodd" d="M7.69933 46.5351C12.0792 46.509 16.4588 46.5351 20.838 46.6133C21.5644 46.714 21.9814 47.1308 22.0893 47.864C22.0263 48.3154 21.8178 48.6803 21.4637 48.9585C16.7192 49.0627 11.9746 49.0627 7.23009 48.9585C6.64957 48.5656 6.46708 48.0184 6.68265 47.3168C6.92714 46.9224 7.26604 46.6618 7.69933 46.5351Z" fill="black"/>
</g>
<defs>
<clipPath id="clip0_206_210">
<rect width="80.0833" height="80.0481" fill="white" transform="translate(0.269775 0.804504)"/>
</clipPath>
</defs>
</svg>
