<?xml version="1.0" encoding="UTF-8"?>
<!DOCTYPE svg PUBLIC "-//W3C//DTD SVG 1.1//EN" "http://www.w3.org/Graphics/SVG/1.1/DTD/svg11.dtd">
<svg xmlns="http://www.w3.org/2000/svg" version="1.1" width="512px" height="512px" style="shape-rendering:geometricPrecision; text-rendering:geometricPrecision; image-rendering:optimizeQuality; fill-rule:evenodd; clip-rule:evenodd" xmlns:xlink="http://www.w3.org/1999/xlink">
<g><path style="opacity:0.917" fill="#000000" d="M 87.5,10.5 C 216.834,10.3333 346.167,10.5 475.5,11C 489.11,14.0454 496.276,22.5454 497,36.5C 497.667,145.833 497.667,255.167 497,364.5C 495.799,378.086 488.633,386.586 475.5,390C 465.506,390.5 455.506,390.666 445.5,390.5C 445.882,406.206 445.382,421.872 444,437.5C 440.224,447.609 433.057,453.776 422.5,456C 398.169,456.5 373.836,456.667 349.5,456.5C 349.667,469.837 349.5,483.171 349,496.5C 348.626,497.416 348.126,498.25 347.5,499C 325.586,500.157 303.586,500.657 281.5,500.5C 259.414,500.657 237.414,500.157 215.5,499C 214.874,498.25 214.374,497.416 214,496.5C 213.5,483.171 213.333,469.837 213.5,456.5C 154.499,456.667 95.4991,456.5 36.5,456C 22.9584,452.794 15.4584,444.294 14,430.5C 13.3333,321.167 13.3333,211.833 14,102.5C 14.7861,89.0761 21.6194,80.5761 34.5,77C 44.828,76.5002 55.1613,76.3335 65.5,76.5C 65.0985,60.7899 65.5985,45.1232 67,29.5C 70.2178,19.1602 77.0511,12.8269 87.5,10.5 Z M 89.5,24.5 C 217.5,24.3333 345.5,24.5 473.5,25C 477.275,26.4421 480.108,28.9421 482,32.5C 482.5,52.8306 482.667,73.1639 482.5,93.5C 400.166,93.6667 317.833,93.5 235.5,93C 225.5,81.6667 214.833,71 203.5,61C 191.22,59.8738 178.887,59.3738 166.5,59.5C 155.5,59.6667 144.5,59.8333 133.5,60C 128.611,60.5561 125.111,63.0561 123,67.5C 122.5,76.1603 122.334,84.8269 122.5,93.5C 108.167,93.5 93.8333,93.5 79.5,93.5C 79.3334,74.8304 79.5001,56.1637 80,37.5C 80.6979,31.31 83.8646,26.9766 89.5,24.5 Z M 359.5,54.5 C 362.99,54.1506 365.323,55.6506 366.5,59C 364.296,63.7718 361.13,64.6051 357,61.5C 356.162,58.5193 356.995,56.1859 359.5,54.5 Z M 403.5,54.5 C 410.02,54.7174 411.687,57.5508 408.5,63C 400.753,63.6692 399.086,60.8359 403.5,54.5 Z M 447.5,54.5 C 454.486,54.331 456.153,57.1643 452.5,63C 445.416,63.475 443.749,60.6417 447.5,54.5 Z M 136.5,73.5 C 156.836,73.3334 177.169,73.5 197.5,74C 207.864,84.0294 217.864,94.3627 227.5,105C 228.833,105.667 230.167,106.333 231.5,107C 315.166,107.5 398.833,107.667 482.5,107.5C 482.667,194.501 482.5,281.501 482,368.5C 480.108,372.058 477.275,374.558 473.5,376C 430.833,376.667 388.167,376.667 345.5,376C 356.469,373.219 360.636,366.386 358,355.5C 335.587,314.339 312.92,273.339 290,232.5C 284.333,227.167 278.667,227.167 273,232.5C 250.08,273.339 227.413,314.339 205,355.5C 202.342,366.334 206.509,373.168 217.5,376C 174.833,376.667 132.167,376.667 89.5,376C 83.6625,373.833 80.4958,369.666 80,363.5C 79.5,278.167 79.3333,192.834 79.5,107.5C 96.5946,107.971 113.595,107.471 130.5,106C 133.754,103.658 135.588,100.491 136,96.5C 136.5,88.8406 136.666,81.1739 136.5,73.5 Z M 37.5,90.5 C 46.8333,90.5 56.1667,90.5 65.5,90.5C 65.3333,182.167 65.5,273.834 66,365.5C 67.1358,378.969 74.3025,387.135 87.5,390C 136.167,390.333 184.833,390.667 233.5,391C 235.92,395.504 236.92,400.337 236.5,405.5C 227.993,404.078 220.827,406.411 215,412.5C 213.577,422.42 213.077,432.42 213.5,442.5C 155.166,442.667 96.8324,442.5 38.5,442C 34.5198,441.186 31.5198,439.019 29.5,435.5C 28.3355,323.207 28.1688,210.873 29,98.5C 30.773,94.5596 33.6063,91.893 37.5,90.5 Z M 267.5,168.5 C 276.833,168.5 286.167,168.5 295.5,168.5C 295.5,177.833 295.5,187.167 295.5,196.5C 286.167,196.5 276.833,196.5 267.5,196.5C 267.5,187.167 267.5,177.833 267.5,168.5 Z M 133.5,170.5 C 145.299,169.465 150.466,174.798 149,186.5C 144.699,194.377 138.533,196.21 130.5,192C 123.309,183.65 124.309,176.484 133.5,170.5 Z M 420.5,170.5 C 433.855,169.568 439.021,175.568 436,188.5C 427.811,196.912 420.478,196.245 414,186.5C 412.062,179.389 414.229,174.056 420.5,170.5 Z M 273.5,260.5 C 274.823,270.341 274.823,280.341 273.5,290.5C 260.206,298.674 257.372,309.674 265,323.5C 271.21,329.901 278.71,332.068 287.5,330C 299.848,324.802 304.348,315.636 301,302.5C 299.033,296.699 295.199,292.699 289.5,290.5C 288.334,280.517 288.168,270.517 289,260.5C 307.701,293.706 326.201,327.039 344.5,360.5C 329.559,365.607 319.392,375.607 314,390.5C 312.75,395.42 312.25,400.42 312.5,405.5C 291.833,405.5 271.167,405.5 250.5,405.5C 250.327,382.997 239.66,367.83 218.5,360C 237.09,326.926 255.424,293.76 273.5,260.5 Z M 146.5,290.5 C 155.833,290.5 165.167,290.5 174.5,290.5C 174.5,299.833 174.5,309.167 174.5,318.5C 165.167,318.5 155.833,318.5 146.5,318.5C 146.5,309.167 146.5,299.833 146.5,290.5 Z M 388.5,290.5 C 397.833,290.5 407.167,290.5 416.5,290.5C 416.922,299.829 417.255,309.163 417.5,318.5C 408.167,318.5 398.833,318.5 389.5,318.5C 389.167,309.167 388.833,299.833 388.5,290.5 Z M 278.5,303.5 C 284.641,302.816 287.808,305.483 288,311.5C 285.156,316.866 281.156,317.866 276,314.5C 273.827,310.179 274.66,306.513 278.5,303.5 Z M 329.5,390.5 C 363.5,390.5 397.5,390.5 431.5,390.5C 431.667,403.504 431.5,416.504 431,429.5C 430.407,436.094 426.907,440.261 420.5,442C 396.836,442.5 373.169,442.667 349.5,442.5C 349.923,432.42 349.423,422.42 348,412.5C 342.25,406.127 335.083,403.793 326.5,405.5C 326.12,400.181 327.12,395.181 329.5,390.5 Z M 227.5,419.5 C 263.5,419.5 299.5,419.5 335.5,419.5C 335.5,441.833 335.5,464.167 335.5,486.5C 299.5,486.5 263.5,486.5 227.5,486.5C 227.5,464.167 227.5,441.833 227.5,419.5 Z"/></g>
<g><path style="opacity:0.916" fill="#000000" d="M 355.5,40.5 C 369.722,38.9057 378.056,45.0724 380.5,59C 378.425,73.5476 370.091,79.5476 355.5,77C 342.145,70.5979 338.978,60.7646 346,47.5C 348.825,44.524 351.992,42.1907 355.5,40.5 Z M 359.5,54.5 C 356.995,56.1859 356.162,58.5193 357,61.5C 361.13,64.6051 364.296,63.7718 366.5,59C 365.323,55.6506 362.99,54.1506 359.5,54.5 Z"/></g>
<g><path style="opacity:0.918" fill="#000000" d="M 399.5,40.5 C 418.441,39.27 426.274,47.9367 423,66.5C 418.061,76.1569 410.228,79.6569 399.5,77C 387.751,71.096 384.251,61.9293 389,49.5C 391.84,45.6732 395.34,42.6732 399.5,40.5 Z M 403.5,54.5 C 399.086,60.8359 400.753,63.6692 408.5,63C 411.687,57.5508 410.02,54.7174 403.5,54.5 Z"/></g>
<g><path style="opacity:0.921" fill="#000000" d="M 444.5,40.5 C 455.457,38.5612 463.29,42.5612 468,52.5C 470.5,71.3333 462.333,79.5 443.5,77C 431.565,70.5287 428.398,61.0287 434,48.5C 436.855,44.7893 440.355,42.1226 444.5,40.5 Z M 447.5,54.5 C 443.749,60.6417 445.416,63.475 452.5,63C 456.153,57.1643 454.486,54.331 447.5,54.5 Z"/></g>
<g><path style="opacity:0.926" fill="#000000" d="M 262.5,154.5 C 275.171,154.333 287.838,154.5 300.5,155C 303.937,156.105 306.437,158.272 308,161.5C 309.339,166.736 309.839,172.07 309.5,177.5C 339.507,177.833 369.507,177.5 399.5,176.5C 405.787,159.522 417.787,153.355 435.5,158C 449.783,165.411 454.616,176.911 450,192.5C 444.068,204.885 434.234,210.051 420.5,208C 411.629,205.964 405.296,200.797 401.5,192.5C 381.508,191.334 361.508,191.167 341.5,192C 375.828,210.465 397.828,238.632 407.5,276.5C 412.179,276.334 416.845,276.501 421.5,277C 426.847,279.015 430.014,282.849 431,288.5C 431.667,299.167 431.667,309.833 431,320.5C 430.444,325.389 427.944,328.889 423.5,331C 416.743,332.109 409.909,332.609 403,332.5C 397.167,332.333 391.333,332.167 385.5,332C 380.765,330.932 377.598,328.099 376,323.5C 375.333,310.833 375.333,298.167 376,285.5C 379.202,278.479 384.702,275.479 392.5,276.5C 382.155,240.646 359.822,215.146 325.5,200C 320.381,197.961 315.215,196.128 310,194.5C 310.313,201.273 307.479,206.106 301.5,209C 288.167,209.667 274.833,209.667 261.5,209C 256.147,206.131 253.48,201.631 253.5,195.5C 211.49,207.175 183.823,233.842 170.5,275.5C 174.998,276.102 179.332,277.269 183.5,279C 185.617,280.731 187.117,282.898 188,285.5C 188.667,297.833 188.667,310.167 188,322.5C 186.833,327.667 183.667,330.833 178.5,332C 166.833,332.667 155.167,332.667 143.5,332C 138,330.5 134.5,327 133,321.5C 132.333,310.167 132.333,298.833 133,287.5C 133.772,281.765 136.938,278.265 142.5,277C 146.871,276.828 151.204,276.328 155.5,275.5C 165.817,238.358 187.817,210.525 221.5,192C 201.833,191.333 182.167,191.333 162.5,192C 155.33,206.068 143.996,211.068 128.5,207C 112.993,199.143 108.159,186.976 114,170.5C 120.854,158.828 131.021,154.328 144.5,157C 154.369,160.036 160.702,166.536 163.5,176.5C 193.493,177.5 223.493,177.833 253.5,177.5C 253.161,172.07 253.661,166.736 255,161.5C 256.742,158.254 259.242,155.921 262.5,154.5 Z M 267.5,168.5 C 267.5,177.833 267.5,187.167 267.5,196.5C 276.833,196.5 286.167,196.5 295.5,196.5C 295.5,187.167 295.5,177.833 295.5,168.5C 286.167,168.5 276.833,168.5 267.5,168.5 Z M 133.5,170.5 C 124.309,176.484 123.309,183.65 130.5,192C 138.533,196.21 144.699,194.377 149,186.5C 150.466,174.798 145.299,169.465 133.5,170.5 Z M 420.5,170.5 C 414.229,174.056 412.062,179.389 414,186.5C 420.478,196.245 427.811,196.912 436,188.5C 439.021,175.568 433.855,169.568 420.5,170.5 Z M 146.5,290.5 C 146.5,299.833 146.5,309.167 146.5,318.5C 155.833,318.5 165.167,318.5 174.5,318.5C 174.5,309.167 174.5,299.833 174.5,290.5C 165.167,290.5 155.833,290.5 146.5,290.5 Z M 388.5,290.5 C 388.833,299.833 389.167,309.167 389.5,318.5C 398.833,318.5 408.167,318.5 417.5,318.5C 417.255,309.163 416.922,299.829 416.5,290.5C 407.167,290.5 397.833,290.5 388.5,290.5 Z M 278.5,303.5 C 274.66,306.513 273.827,310.179 276,314.5C 281.156,317.866 285.156,316.866 288,311.5C 287.808,305.483 284.641,302.816 278.5,303.5 Z"/></g>
</svg>
