<?xml version="1.0" encoding="UTF-8"?>
<!DOCTYPE svg PUBLIC "-//W3C//DTD SVG 1.1//EN" "http://www.w3.org/Graphics/SVG/1.1/DTD/svg11.dtd">
<svg xmlns="http://www.w3.org/2000/svg" version="1.1" width="128px" height="128px" style="shape-rendering:geometricPrecision; text-rendering:geometricPrecision; image-rendering:optimizeQuality; fill-rule:evenodd; clip-rule:evenodd" xmlns:xlink="http://www.w3.org/1999/xlink">
<g><path style="opacity:0.84" fill="#000000" d="M 127.5,15.5 C 127.5,47.5 127.5,79.5 127.5,111.5C 125.249,115.48 121.916,118.313 117.5,120C 81.5,120.667 45.5,120.667 9.5,120C 5.08417,118.313 1.75084,115.48 -0.5,111.5C -0.5,79.5 -0.5,47.5 -0.5,15.5C 2.02855,11.8112 5.36188,8.97791 9.5,7C 45.5,6.33333 81.5,6.33333 117.5,7C 121.638,8.97791 124.971,11.8112 127.5,15.5 Z M 12.5,11.5 C 46.5016,11.3333 80.5016,11.5 114.5,12C 117.625,12.9794 120.125,14.8127 122,17.5C 122.5,23.8246 122.666,30.1579 122.5,36.5C 83.1667,36.5 43.8333,36.5 4.5,36.5C 4.33379,30.1579 4.50046,23.8246 5,17.5C 7.10899,14.8782 9.60899,12.8782 12.5,11.5 Z M 13.5,22.5 C 14.5,22.5 15.5,22.5 16.5,22.5C 16.5,23.5 16.5,24.5 16.5,25.5C 15.5,25.5 14.5,25.5 13.5,25.5C 13.5,24.5 13.5,23.5 13.5,22.5 Z M 34.5,22.5 C 35.9953,22.4148 36.9953,23.0815 37.5,24.5C 34.6232,25.9109 33.6232,25.2442 34.5,22.5 Z M 54.5,22.5 C 55.5,22.5 56.5,22.5 57.5,22.5C 57.5,23.5 57.5,24.5 57.5,25.5C 56.5,25.5 55.5,25.5 54.5,25.5C 54.5,24.5 54.5,23.5 54.5,22.5 Z M 4.5,41.5 C 43.8333,41.5 83.1667,41.5 122.5,41.5C 122.667,64.1691 122.5,86.8358 122,109.5C 120.125,112.187 117.625,114.021 114.5,115C 80.5,115.667 46.5,115.667 12.5,115C 9.37495,114.021 6.87495,112.187 5,109.5C 4.50004,86.8358 4.33337,64.1691 4.5,41.5 Z"/></g>
<g><path style="opacity:0.782" fill="#000000" d="M 13.5,16.5 C 21.2488,17.26 23.7488,21.26 21,28.5C 14.6558,32.9221 10.1558,31.4221 7.5,24C 8.25968,20.4166 10.2597,17.9166 13.5,16.5 Z M 13.5,22.5 C 13.5,23.5 13.5,24.5 13.5,25.5C 14.5,25.5 15.5,25.5 16.5,25.5C 16.5,24.5 16.5,23.5 16.5,22.5C 15.5,22.5 14.5,22.5 13.5,22.5 Z"/></g>
<g><path style="opacity:0.778" fill="#000000" d="M 34.5,16.5 C 41.173,17.3375 43.673,21.0042 42,27.5C 35.9004,33.3493 31.4004,32.3493 28.5,24.5C 28.6847,20.3325 30.6847,17.6659 34.5,16.5 Z M 34.5,22.5 C 33.6232,25.2442 34.6232,25.9109 37.5,24.5C 36.9953,23.0815 35.9953,22.4148 34.5,22.5 Z"/></g>
<g><path style="opacity:0.775" fill="#000000" d="M 55.5,16.5 C 62.4662,17.898 64.6329,21.898 62,28.5C 58.9233,31.8091 55.4233,32.3091 51.5,30C 47.4621,23.9448 48.7954,19.4448 55.5,16.5 Z M 54.5,22.5 C 54.5,23.5 54.5,24.5 54.5,25.5C 55.5,25.5 56.5,25.5 57.5,25.5C 57.5,24.5 57.5,23.5 57.5,22.5C 56.5,22.5 55.5,22.5 54.5,22.5 Z"/></g>
<g><path style="opacity:0.78" fill="#000000" d="M 66.5,52.5 C 68.8896,52.6848 69.8896,54.0182 69.5,56.5C 66.8585,69.874 64.0252,83.2073 61,96.5C 60.0475,98.5922 58.7141,98.9255 57,97.5C 58.4188,84.0655 60.7521,70.7322 64,57.5C 64.3345,55.4971 65.1679,53.8304 66.5,52.5 Z"/></g>
<g><path style="opacity:0.75" fill="#000000" d="M 47.5,61.5 C 49.1667,61.5 50.8333,61.5 52.5,61.5C 52.6567,62.8734 52.49,64.2068 52,65.5C 48.0195,68.3135 44.5195,71.6468 41.5,75.5C 44.8623,78.9398 48.3623,82.2731 52,85.5C 52.8542,87.6073 52.1875,88.9407 50,89.5C 43.6427,85.8959 38.1427,81.2292 33.5,75.5C 37.8544,70.479 42.521,65.8123 47.5,61.5 Z"/></g>
<g><path style="opacity:0.75" fill="#000000" d="M 74.5,61.5 C 76.1992,61.3398 77.8659,61.5065 79.5,62C 84.6754,66.0094 89.342,70.5094 93.5,75.5C 88.8573,81.2292 83.3573,85.8959 77,89.5C 74.8125,88.9407 74.1458,87.6073 75,85.5C 78.6377,82.2731 82.1377,78.9398 85.5,75.5C 82.4805,71.6468 78.9805,68.3135 75,65.5C 74.51,64.2068 74.3433,62.8734 74.5,61.5 Z"/></g>
</svg>
