<svg width="94" height="94" viewBox="0 0 94 94" fill="none" xmlns="http://www.w3.org/2000/svg">
<path opacity="0.903" fill-rule="evenodd" clip-rule="evenodd" d="M28.5488 4.31457C30.5656 4.12306 31.2082 4.97982 30.4766 6.88488C22.6127 14.7488 14.7487 22.6128 6.88475 30.4767C4.65102 31.1804 3.88606 30.4155 4.58983 28.1818C12.5569 20.184 20.5432 12.2283 28.5488 4.31457Z" fill="white" fill-opacity="0.29"/>
<path opacity="0.904" fill-rule="evenodd" clip-rule="evenodd" d="M52.0488 4.31457C54.0656 4.12306 54.7082 4.97982 53.9766 6.88488C38.2793 22.5822 22.582 38.2794 6.88475 53.9767C4.65102 54.6804 3.88606 53.9156 4.58983 51.6818C20.3903 35.8508 36.2098 20.0618 52.0488 4.31457Z" fill="white" fill-opacity="0.52"/>
<path opacity="0.904" fill-rule="evenodd" clip-rule="evenodd" d="M75.5488 4.31457C77.5656 4.12306 78.2082 4.97982 77.4766 6.88488C53.9459 30.4156 30.4154 53.946 6.88475 77.4767C4.65102 78.1804 3.88606 77.4156 4.58983 75.1818C28.2235 51.5175 51.8766 27.895 75.5488 4.31457Z" fill="white" fill-opacity="0.29"/>
<path opacity="0.904" fill-rule="evenodd" clip-rule="evenodd" d="M87.2988 16.0643C89.3156 15.8728 89.9582 16.7296 89.2266 18.6346C65.6959 42.1653 42.1654 65.6958 18.6348 89.2265C16.401 89.9302 15.6361 89.1653 16.3398 86.9315C39.9735 63.2672 63.6266 39.6448 87.2988 16.0643Z" fill="white" fill-opacity="0.74"/>
<path opacity="0.904" fill-rule="evenodd" clip-rule="evenodd" d="M87.2986 39.5645C89.2379 39.4534 89.8805 40.3101 89.2263 42.1348C73.5291 57.8321 57.8318 73.5294 42.1346 89.2266C41.1745 89.7078 40.3484 89.5549 39.656 88.7676C39.506 88.1317 39.5674 87.5196 39.8396 86.9317C55.6401 71.1008 71.4596 55.3117 87.2986 39.5645Z" fill="white" fill-opacity="0.29"/>
<path opacity="0.903" fill-rule="evenodd" clip-rule="evenodd" d="M87.2986 63.0645C89.2379 62.9534 89.8805 63.8101 89.2263 65.6348C81.3625 73.4987 73.4984 81.3627 65.6346 89.2266C64.6745 89.7078 63.8484 89.5549 63.156 88.7676C63.006 88.1316 63.0674 87.5195 63.3396 86.9317C71.3067 78.934 79.293 70.9783 87.2986 63.0645Z" fill="white" fill-opacity="0.29"/>
</svg>
