<svg width="16" height="141" viewBox="0 0 16 141" fill="none" xmlns="http://www.w3.org/2000/svg">
<path d="M10.3872 11.0141L15.2731 1.06853L3.72686 0.938306L8.38729 10.9915L10.3872 11.0141ZM7.21724 140.704C7.60334 141.099 8.23646 141.106 8.63136 140.72L15.0667 134.428C15.4616 134.042 15.4687 133.409 15.0826 133.014C14.6965 132.619 14.0634 132.612 13.6685 132.998L7.94823 138.59L2.35553 132.87C1.96943 132.475 1.33631 132.468 0.941405 132.854C0.546502 133.24 0.539361 133.873 0.925456 134.268L7.21724 140.704ZM8.39856 9.99157L6.93234 139.993L8.93221 140.016L10.3984 10.0141L8.39856 9.99157Z" fill="white"/>
</svg>
