<svg width="42" height="42" viewBox="0 0 42 42" fill="none" xmlns="http://www.w3.org/2000/svg">
<path opacity="0.931" fill-rule="evenodd" clip-rule="evenodd" d="M20.7952 2.17387C21.2428 2.135 21.5299 2.3264 21.6566 2.74808C21.6033 5.46486 21.9861 8.11719 22.805 10.7051C24.9123 16.3914 29.0002 19.5223 35.0688 20.0976C35.9967 20.1808 36.9264 20.2355 37.8579 20.2617C38.4378 20.4939 38.5745 20.8905 38.268 21.4512C38.1522 21.5583 38.0155 21.6267 37.8579 21.6562C27.9176 21.78 22.5445 26.7976 21.7386 36.7089C21.7113 37.5292 21.6839 38.3496 21.6566 39.1699C21.4443 39.6876 21.0751 39.8379 20.5492 39.621C20.3862 39.5128 20.2904 39.3625 20.262 39.1699C20.4026 35.3329 19.5823 31.7235 17.8011 28.3418C15.6449 24.8756 12.5414 22.7838 8.49048 22.0664C6.99847 21.8015 5.49456 21.6648 3.97873 21.6562C3.47352 21.3759 3.36413 20.9795 3.6506 20.4668C3.76644 20.3597 3.90317 20.2912 4.06076 20.2617C14.0397 20.1267 19.4128 15.0818 20.18 5.12698C20.2073 4.33401 20.2347 3.54105 20.262 2.74808C20.3456 2.45977 20.5233 2.26837 20.7952 2.17387ZM20.8773 9.31057C21.1829 10.1033 21.47 10.9236 21.7386 11.7715C23.6346 16.5521 27.0663 19.6146 32.0336 20.959C27.0621 22.308 23.6304 25.3705 21.7386 30.1465C21.4537 30.9601 21.1939 31.7804 20.9593 32.6074C19.4877 26.556 15.769 22.6595 9.80299 20.918C15.8577 19.3066 19.5491 15.4375 20.8773 9.31057Z" fill="white"/>
</svg>
