<svg width="88" height="88" viewBox="0 0 88 88" fill="none" xmlns="http://www.w3.org/2000/svg">
<path opacity="0.931" fill-rule="evenodd" clip-rule="evenodd" d="M43.5707 4.55474C44.5084 4.47331 45.11 4.87434 45.3754 5.75787C45.2636 11.4502 46.0658 17.0074 47.7816 22.4297C52.1968 34.3439 60.7619 40.9038 73.4771 42.1094C75.4212 42.2836 77.3693 42.3981 79.3209 42.4531C80.5359 42.9397 80.8224 43.7705 80.1803 44.9453C79.9376 45.1698 79.6511 45.3131 79.3209 45.375C58.4936 45.6343 47.2357 56.1474 45.5472 76.914C45.49 78.6327 45.4326 80.3515 45.3754 82.0702C44.9305 83.1549 44.1571 83.47 43.055 83.0155C42.7135 82.7888 42.5129 82.4738 42.4535 82.0702C42.7481 74.0308 41.0293 66.4683 37.2972 59.3828C32.7794 52.1204 26.2768 47.7376 17.7892 46.2344C14.6631 45.6794 11.5121 45.3929 8.33603 45.375C7.27749 44.7877 7.04831 43.957 7.64852 42.8828C7.89125 42.6583 8.17771 42.515 8.5079 42.4531C29.4161 42.1702 40.674 31.5999 42.2816 10.7422C42.3388 9.08077 42.3962 7.41933 42.4535 5.75787C42.6284 5.15378 43.0009 4.75274 43.5707 4.55474ZM43.7425 19.5078C44.3828 21.1688 44.9843 22.8876 45.5472 24.6641C49.5198 34.6806 56.7099 41.0974 67.1177 43.914C56.7011 46.7405 49.5109 53.1573 45.5472 63.164C44.9503 64.8688 44.406 66.5876 43.9144 68.3202C40.8311 55.6411 33.0395 47.477 20.5392 43.8281C33.2253 40.452 40.9597 32.3452 43.7425 19.5078Z" fill="white"/>
</svg>
