<svg width="350" height="350" viewBox="0 0 350 350" fill="none" xmlns="http://www.w3.org/2000/svg">
<path opacity="0.897" fill-rule="evenodd" clip-rule="evenodd" d="M59.8143 68.7013C125.967 66.5491 190.225 76.4614 252.587 98.4376C271.799 105.534 289.572 115.104 305.907 127.148C318.658 137.044 327.431 149.69 332.225 165.088C334.689 182.079 330.36 197.118 319.237 210.205C307.892 222.698 294.79 232.838 279.931 240.625C258.656 251.742 236.553 260.857 213.622 267.969C213.166 268.425 212.711 268.88 212.255 269.336C240.301 264.525 268.329 259.398 296.337 253.955C297.248 254.639 297.248 255.322 296.337 256.006C267.49 267.941 237.64 276.03 206.786 280.273C202.524 279.201 200.246 276.466 199.95 272.07C200.2 269.498 200.998 267.105 202.343 264.893C218.493 241.421 236.836 219.66 257.372 199.609C258.044 199.205 258.5 199.434 258.739 200.293C245.044 221.737 230.802 242.814 216.015 263.525C215.559 263.981 215.559 264.437 216.015 264.893C237.538 256.238 258.16 245.871 277.88 233.789C290.359 225.876 301.638 216.42 311.718 205.42C319.123 196.758 323.339 186.732 324.364 175.342C323.844 165.231 320.312 156.345 313.768 148.682C299.908 134.154 283.616 123.102 264.892 115.527C212.181 92.4049 157.037 79.189 99.4626 75.879C71.6725 74.1324 43.8729 73.7906 16.0645 74.8536C16.0645 74.17 16.0645 73.4864 16.0645 72.8028C30.7055 70.977 45.2888 69.6098 59.8143 68.7013Z" fill="white" fill-opacity="0.16"/>
</svg>
