<svg width="990" height="776" viewBox="0 0 990 776" fill="none" xmlns="http://www.w3.org/2000/svg">
<path d="M57.9586 743.079L58.762 739.94C79.2131 660.036 148.134 601.927 230.345 595.274L251.895 593.53C306.485 589.113 354.706 556.252 378.784 507.06V507.06L387.456 481.328C400.811 441.701 434.597 412.428 475.722 404.852L492.294 401.799C526.321 395.53 553.607 370.067 562.211 336.555L565.826 322.473C574.689 287.951 607.494 265.125 642.944 268.814L647.5 269.288C683.486 273.033 715.975 247.608 720.991 211.777L722.981 197.564C728.058 161.304 765.967 139.566 799.825 153.5V153.5C829.538 165.727 863.428 150.526 874.055 120.203L876.924 112.017C885.954 86.2499 910.279 68.9998 937.583 68.9999L954 68.9999" stroke="#C9F31D" stroke-opacity="0.3" stroke-dasharray="16 16"/>
<path opacity="0.939" fill-rule="evenodd" clip-rule="evenodd" d="M948.421 55.1851C961.882 55.852 975.343 56.5188 988.804 57.1857C989.174 57.5355 989.231 57.9368 988.974 58.3897C987.835 59.922 986.642 61.4109 985.395 62.8566C984.388 62.8878 984.118 62.4606 984.584 61.5749C985.151 60.8204 985.739 60.0831 986.35 59.3632C986.414 59.3051 986.417 59.244 986.359 59.1798C978.7 61.347 971.034 63.4963 963.36 65.6275C967.437 68.1439 971.513 70.6603 975.59 73.1767C977.935 70.1767 980.291 67.182 982.66 64.1925C983.637 64.0467 983.94 64.4448 983.567 65.387C981.137 68.5394 978.696 71.6832 976.245 74.8185C975.933 74.9759 975.627 74.9608 975.327 74.7731C973.316 73.5054 971.293 72.2556 969.257 71.0237C966.138 72.9771 963.035 74.9539 959.946 76.954C959.292 77.1782 958.889 76.9589 958.737 76.2963C958.273 71.5171 957.789 66.7416 957.285 61.9698C954.278 60.1501 951.27 58.3305 948.263 56.5108C947.9 56.0072 947.953 55.5653 948.421 55.1851ZM951.739 56.9129C960.877 57.2584 970.025 57.6962 979.184 58.2265C972.225 59.0502 965.268 59.8857 958.312 60.7332C956.109 59.4783 953.918 58.2049 951.739 56.9129ZM978.186 59.7865C978.313 59.7784 978.435 59.7997 978.551 59.8506C972.767 61.4646 966.982 63.0787 961.198 64.6927C960.925 64.8288 960.776 65.0513 960.751 65.3603C960.415 67.183 960.08 69.0056 959.744 70.8283C959.387 67.9399 959.086 65.0435 958.841 62.1388C965.307 61.4004 971.755 60.6163 978.186 59.7865ZM962.023 66.6188C963.954 67.7385 965.859 68.9058 967.737 70.1207C965.38 71.6807 963.003 73.2183 960.608 74.7336C961.033 72.0386 961.505 69.3336 962.023 66.6188Z" fill="#C9F31D" fill-opacity="0.3"/>
</svg>
