<svg width="1170" height="344" viewBox="0 0 1170 344" fill="none" xmlns="http://www.w3.org/2000/svg">
<rect y="1" width="1170" height="342" fill="#C9F31D"/>
<g clip-path="url(#clip0_330_2)">
<path opacity="0.947" fill-rule="evenodd" clip-rule="evenodd" d="M55.9121 226.787C55.9121 226.201 55.9121 225.615 55.9121 225.029C56.1708 224.742 56.4638 224.478 56.791 224.238C62.8555 223.799 66.1074 220.547 66.5468 214.482C67.1893 213.643 68.0389 213.379 69.0957 213.691C69.4179 213.896 69.6816 214.16 69.8867 214.482C70.3261 220.547 73.5781 223.799 79.6425 224.238C80.4819 224.881 80.7455 225.73 80.4335 226.787C80.2284 227.109 79.9647 227.373 79.6425 227.578C73.5781 228.017 70.3261 231.269 69.8867 237.334C69.2442 238.173 68.3946 238.437 67.3379 238.125C67.0156 237.92 66.7519 237.656 66.5468 237.334C66.1074 231.269 62.8555 228.017 56.791 227.578C56.4638 227.338 56.1708 227.074 55.9121 226.787ZM68.041 222.041C69.2609 223.436 70.6085 224.725 72.0839 225.908C70.6191 227.021 69.33 228.31 68.2168 229.775C67.1035 228.31 65.8144 227.021 64.3496 225.908C65.8296 224.839 67.0601 223.55 68.041 222.041Z" fill="#1C3F39" fill-opacity="0.7"/>
<path opacity="0.945" fill-rule="evenodd" clip-rule="evenodd" d="M94.76 218.877C95.8183 218.652 96.6678 218.945 97.3089 219.756C97.614 231.181 102.507 240 111.987 246.211C116.989 249.069 122.38 250.534 128.159 250.605C128.998 251.248 129.262 252.097 128.95 253.154C128.745 253.476 128.481 253.74 128.159 253.945C122.371 253.986 116.98 255.451 111.987 258.34C110.864 258.754 110.014 258.432 109.438 257.373C109.127 256.208 109.508 255.358 110.58 254.824C112.356 253.878 114.173 253.028 116.03 252.275C106.244 248.467 99.4476 241.67 95.639 231.885C91.8303 241.67 85.0335 248.467 75.2482 252.275C85.0335 256.084 91.8303 262.881 95.639 272.666C96.4996 270.388 97.6128 268.249 98.9788 266.25C100.594 265.622 101.591 266.149 101.967 267.832C100.452 270.658 99.2509 273.617 98.3636 276.709C97.7812 279.376 97.4297 282.071 97.3089 284.795C96.6664 285.634 95.8169 285.898 94.76 285.586C94.4378 285.381 94.1742 285.117 93.969 284.795C93.5631 272.108 87.7917 262.821 76.6545 256.933C72.3449 255.04 67.8331 254.044 63.1192 253.945C62.2799 253.303 62.0163 252.453 62.3282 251.396C62.5333 251.074 62.797 250.811 63.1192 250.605C74.5465 250.299 83.365 245.407 89.5745 235.928C92.4091 230.918 93.8739 225.528 93.969 219.756C94.2091 219.429 94.4728 219.136 94.76 218.877Z" fill="#1C3F39" fill-opacity="0.7"/>
<path opacity="0.908" fill-rule="evenodd" clip-rule="evenodd" d="M104.076 259.834C106.154 259.539 107.004 260.418 106.625 262.47C105.982 263.31 105.133 263.574 104.076 263.262C103.237 262.619 102.973 261.769 103.285 260.713C103.525 260.385 103.789 260.093 104.076 259.834Z" fill="#1C3F39" fill-opacity="0.7"/>
<path opacity="0.944" fill-rule="evenodd" clip-rule="evenodd" d="M145.912 277.763C145.912 278.349 145.912 278.935 145.912 279.521C145.653 279.809 145.361 280.072 145.033 280.312C135.687 280.987 130.677 285.997 130.004 295.342C129.361 296.181 128.512 296.445 127.455 296.133C127.133 295.927 126.869 295.664 126.664 295.342C125.991 285.997 120.981 280.987 111.635 280.312C110.795 279.67 110.532 278.82 110.844 277.763C111.049 277.441 111.312 277.178 111.635 276.972C120.981 276.298 125.991 271.288 126.664 261.943C127.307 261.104 128.156 260.84 129.213 261.152C129.535 261.357 129.799 261.621 130.004 261.943C130.677 271.288 135.687 276.298 145.033 276.972C145.361 277.213 145.653 277.476 145.912 277.763ZM128.158 270.908C129.352 272.666 130.699 274.336 132.201 275.918C133.398 276.956 134.687 277.864 136.068 278.642C132.729 280.459 130.15 283.037 128.334 286.377C126.518 283.037 123.939 280.459 120.6 278.642C123.956 276.868 126.476 274.29 128.158 270.908Z" fill="#1C3F39" fill-opacity="0.7"/>
</g>
<path d="M273 342L304.105 256.241C318.31 217.078 355.513 190.997 397.173 190.997H410.418C441.158 190.997 469.804 175.424 486.519 149.626L500.813 127.566C519.359 98.9417 557.226 90.118 586.515 107.596V107.596C613.603 123.76 648.454 117.553 668.296 93.0304L678.422 80.5148C700.592 53.1149 737.794 42.9534 770.815 55.2788L791.5 63L826.212 80.6535C857.895 96.7666 896.277 91.3096 922.214 67.0042V67.0042C944.607 46.0196 976.623 38.8388 1005.83 48.2496L1028.66 55.6037C1059.56 65.5601 1093.38 59.7304 1119.17 40.0026L1169.5 1.5" stroke="#1C3F39" stroke-opacity="0.33"/>
<path d="M298.5 343L325.024 270.861C338.801 233.391 373.735 207.863 413.62 206.12L445.872 204.71C470.421 203.637 492.935 190.753 506.297 170.131L526.264 139.313C543.042 113.419 579.706 110.23 600.703 132.839L606.414 138.989C625.31 159.336 658.517 155.53 672.319 131.435V131.435C673.438 129.482 674.715 127.623 676.138 125.879L694.628 103.205V103.205C717.674 74.7215 758.819 68.9033 788.859 89.8797L806.5 102.198C840.293 125.795 885.593 124.305 917.762 98.5391L924.309 93.2951C951.957 71.1502 989.331 65.4654 1022.31 78.3875L1039.81 85.2411C1077.89 100.162 1121.23 90.1259 1148.88 59.9828L1169.5 37.5" stroke="#1C3F39" stroke-opacity="0.33"/>
<path d="M249 343L285.774 238.485C299.717 198.857 337.152 172.343 379.162 172.343H391.897C424.43 172.343 454.887 156.359 473.37 129.585L489.827 105.745C510.069 76.4224 547.259 64.0134 581.053 75.3065L589.339 78.0754C616.171 87.0421 645.749 78.3259 663.431 56.2411V56.2411V56.2411C687.916 23.7358 731.554 12.3604 768.792 28.776L828.459 55.0793C845.814 62.73 865.451 63.3913 883.282 56.9253L884.485 56.4888C895.321 52.5596 904.992 45.9657 912.608 37.315V37.315C930.234 17.2958 957.86 9.29719 983.455 16.8025L1000.27 21.7332C1005.41 23.2411 1010.4 25.2287 1015.17 27.67V27.67C1048.4 44.6772 1088.83 38.1716 1115.05 11.5966L1125.5 1" stroke="#1C3F39" stroke-opacity="0.33"/>
<path opacity="0.91" fill-rule="evenodd" clip-rule="evenodd" d="M1041.55 101.234C1044.88 100.789 1047.61 101.831 1049.75 104.359C1057.63 116.73 1065.54 129.073 1073.5 141.39C1075.2 144.277 1075.26 147.193 1073.66 150.14C1073.17 150.935 1072.58 151.639 1071.86 152.25C1058.2 161.582 1044.51 170.853 1030.77 180.062C1027.07 181.333 1023.87 180.578 1021.16 177.797C1013.55 165.713 1005.95 153.63 998.344 141.547C996.548 138.441 996.6 135.368 998.5 132.328C999.099 131.521 999.802 130.817 1000.61 130.219C1013.58 120.792 1026.55 111.364 1039.52 101.937C1040.2 101.676 1040.88 101.442 1041.55 101.234ZM1041.23 103.422C1041.47 103.424 1041.55 103.529 1041.47 103.734C1040.82 104.251 1040.33 104.876 1039.98 105.609C1040.23 106.566 1040.8 106.853 1041.7 106.469C1042.56 105.458 1043.47 104.494 1044.44 103.578C1045.66 114.925 1046.83 126.279 1047.95 137.64C1047.9 137.797 1047.85 137.953 1047.8 138.109C1046.11 137.442 1044.39 136.87 1042.64 136.39C1041.77 136.559 1041.48 137.08 1041.78 137.953C1043.31 138.672 1044.9 139.271 1046.55 139.75C1047.14 139.935 1047.63 139.804 1048.03 139.359C1048.44 142.792 1048.8 146.229 1049.13 149.672C1049.25 150.406 1049.23 151.136 1049.05 151.859C1040.03 148.881 1031.02 145.886 1022.02 142.875C1021.8 142.754 1021.67 142.572 1021.63 142.328C1021.4 140.914 1021.14 139.508 1020.84 138.109C1020.23 137.486 1019.6 137.486 1018.97 138.109C1019 139.377 1019.18 140.627 1019.52 141.859C1019.46 141.911 1019.41 141.963 1019.36 142.015C1013.39 140.086 1007.45 138.081 1001.55 136C1002.17 135.826 1002.77 135.592 1003.34 135.297C1003.83 134.007 1003.38 133.46 1002.02 133.656C1001.33 133.875 1000.66 134.109 999.984 134.359C999.932 134.307 999.88 134.255 999.828 134.203C1000.53 133.009 1001.47 132.045 1002.64 131.312C1014.87 122.467 1027.06 113.56 1039.2 104.594C1039.84 104.118 1040.52 103.727 1041.23 103.422ZM1046.7 104.359C1047.08 104.562 1047.42 104.822 1047.72 105.141C1055.94 117.874 1064.11 130.635 1072.25 143.422C1072.66 144.332 1072.79 145.269 1072.64 146.234C1071.54 145.823 1070.42 145.458 1069.28 145.14C1068.27 145.575 1068.09 146.226 1068.73 147.094C1069.52 147.354 1070.3 147.614 1071.08 147.875C1064.48 149.377 1057.86 150.81 1051.23 152.172C1051.26 151.285 1051.23 150.399 1051.16 149.515C1049.65 134.464 1048.17 119.412 1046.7 104.359ZM999.047 137.64C999.056 137.556 999.108 137.504 999.203 137.484C1015.59 142.965 1032 148.381 1048.42 153.734C1048.37 154.205 1048.19 154.622 1047.88 154.984C1041.26 162.64 1034.65 170.297 1028.03 177.953C1027.89 176.886 1027.65 175.844 1027.33 174.828C1026.81 174.411 1026.29 174.411 1025.77 174.828C1025.6 176.02 1025.71 177.192 1026.08 178.343C1025.14 178.241 1024.31 177.877 1023.58 177.25C1022.89 176.566 1022.29 175.81 1021.78 174.984C1014.55 163.328 1007.26 151.713 999.906 140.14C999.505 139.326 999.218 138.492 999.047 137.64ZM1031.7 177.015C1037.53 170.176 1043.39 163.353 1049.28 156.547C1049.82 155.879 1050.26 155.15 1050.61 154.359C1057.45 152.954 1064.27 151.522 1071.08 150.062C1058.03 159.164 1044.91 168.148 1031.7 177.015Z" fill="#1C3F39" fill-opacity="0.7"/>
<path opacity="0.885" fill-rule="evenodd" clip-rule="evenodd" d="M1037.48 107.953C1038.73 108.056 1039.07 108.681 1038.5 109.828C1037.33 111 1036.16 112.172 1034.98 113.344C1033.83 113.492 1033.39 112.997 1033.66 111.859C1034.86 110.474 1036.14 109.172 1037.48 107.953Z" fill="#1C3F39" fill-opacity="0.7"/>
<path opacity="0.881" fill-rule="evenodd" clip-rule="evenodd" d="M1030.77 114.828C1031.9 114.637 1032.4 115.106 1032.25 116.234C1031.08 117.558 1029.86 118.834 1028.58 120.062C1027.23 120.259 1026.79 119.712 1027.25 118.422C1028.45 117.244 1029.63 116.047 1030.77 114.828Z" fill="#1C3F39" fill-opacity="0.7"/>
<path opacity="0.888" fill-rule="evenodd" clip-rule="evenodd" d="M1024.36 121.547C1025.5 121.468 1025.95 121.988 1025.69 123.109C1024.57 124.381 1023.4 125.605 1022.17 126.781C1020.84 127.12 1020.35 126.625 1020.69 125.297C1021.95 124.059 1023.18 122.809 1024.36 121.547Z" fill="#1C3F39" fill-opacity="0.7"/>
<path opacity="0.903" fill-rule="evenodd" clip-rule="evenodd" d="M1017.64 128.422C1018.78 128.412 1019.88 128.646 1020.92 129.125C1021.49 129.643 1021.54 130.216 1021.08 130.844C1020.67 131.107 1020.26 131.133 1019.83 130.922C1019.78 131.078 1019.72 131.234 1019.67 131.39C1019.84 132.248 1019.99 133.108 1020.14 133.969C1020.02 134.786 1019.55 135.099 1018.73 134.906C1018.51 134.833 1018.33 134.703 1018.19 134.515C1017.92 133.269 1017.69 132.019 1017.48 130.765C1016.83 131.012 1016.15 131.09 1015.45 131C1015.09 130.797 1014.94 130.485 1014.98 130.062C1014.96 129.745 1015.07 129.484 1015.3 129.281C1016.11 129.036 1016.89 128.75 1017.64 128.422Z" fill="#1C3F39" fill-opacity="0.7"/>
<path opacity="0.899" fill-rule="evenodd" clip-rule="evenodd" d="M1024.52 130.453C1026.31 130.92 1028.08 131.467 1029.83 132.094C1030.57 132.996 1030.38 133.647 1029.28 134.047C1027.58 133.489 1025.89 132.916 1024.2 132.328C1023.71 131.582 1023.82 130.957 1024.52 130.453Z" fill="#1C3F39" fill-opacity="0.7"/>
<path opacity="0.884" fill-rule="evenodd" clip-rule="evenodd" d="M1010.92 130.61C1012.38 130.524 1012.79 131.123 1012.17 132.406C1010.67 132.958 1009.16 133.479 1007.64 133.969C1006.15 134.166 1005.73 133.593 1006.39 132.25C1007.92 131.714 1009.43 131.167 1010.92 130.61Z" fill="#1C3F39" fill-opacity="0.7"/>
<path opacity="0.89" fill-rule="evenodd" clip-rule="evenodd" d="M1033.27 133.422C1035.13 133.793 1036.96 134.34 1038.73 135.062C1039.36 135.635 1039.36 136.208 1038.73 136.781C1038.32 136.885 1037.9 136.885 1037.48 136.781C1036.08 136.312 1034.67 135.844 1033.27 135.375C1032.65 134.724 1032.65 134.073 1033.27 133.422Z" fill="#1C3F39" fill-opacity="0.7"/>
<path opacity="0.883" fill-rule="evenodd" clip-rule="evenodd" d="M1051.08 139.359C1053.01 139.698 1054.88 140.245 1056.7 141C1057.28 142.291 1056.86 142.864 1055.45 142.719C1053.93 142.229 1052.42 141.708 1050.92 141.156C1050.31 140.491 1050.36 139.892 1051.08 139.359Z" fill="#1C3F39" fill-opacity="0.7"/>
<path opacity="0.896" fill-rule="evenodd" clip-rule="evenodd" d="M1059.83 142.328C1061.7 142.613 1063.52 143.107 1065.3 143.812C1065.98 144.268 1066.09 144.841 1065.61 145.531C1065.39 145.668 1065.16 145.746 1064.91 145.766C1063.08 145.262 1061.31 144.637 1059.59 143.891C1059.32 143.325 1059.4 142.804 1059.83 142.328Z" fill="#1C3F39" fill-opacity="0.7"/>
<path opacity="0.895" fill-rule="evenodd" clip-rule="evenodd" d="M1021.08 146.86C1021.45 146.834 1021.81 146.86 1022.17 146.938C1022.36 147.079 1022.49 147.261 1022.56 147.485C1022.85 149.099 1023.14 150.714 1023.42 152.328C1023.34 153.323 1022.82 153.661 1021.86 153.344C1021.67 153.203 1021.54 153.021 1021.47 152.797C1021.04 150.991 1020.78 149.168 1020.69 147.328C1020.8 147.142 1020.93 146.986 1021.08 146.86Z" fill="#1C3F39" fill-opacity="0.7"/>
<path opacity="0.891" fill-rule="evenodd" clip-rule="evenodd" d="M1022.64 156.078C1023.52 155.859 1024.06 156.172 1024.28 157.016C1024.54 158.558 1024.83 160.094 1025.14 161.625C1024.97 162.493 1024.45 162.805 1023.58 162.563C1023.27 162.357 1023.09 162.07 1023.03 161.703C1022.76 160.138 1022.48 158.575 1022.17 157.016C1022.25 156.656 1022.4 156.344 1022.64 156.078Z" fill="#1C3F39" fill-opacity="0.7"/>
<path opacity="0.895" fill-rule="evenodd" clip-rule="evenodd" d="M1024.36 165.297C1024.73 165.272 1025.09 165.298 1025.45 165.375C1025.64 165.516 1025.77 165.698 1025.84 165.922C1026.27 167.728 1026.53 169.551 1026.62 171.391C1025.94 172.04 1025.31 171.988 1024.75 171.235C1024.37 169.422 1024.11 167.599 1023.97 165.766C1024.13 165.629 1024.26 165.473 1024.36 165.297Z" fill="#1C3F39" fill-opacity="0.7"/>
<defs>
<clipPath id="clip0_330_2">
<rect width="90" height="90" fill="white" transform="translate(56 210)"/>
</clipPath>
</defs>
</svg>
