<svg width="345" height="112" viewBox="0 0 345 112" fill="none" xmlns="http://www.w3.org/2000/svg">
<mask id="path-1-outside-1_251_486" maskUnits="userSpaceOnUse" x="-1" y="-1" width="347" height="114" fill="black">
<rect fill="white" x="-1" y="-1" width="347" height="114"/>
<path d="M49.4251 72.729V19.272L21.3991 72.729H49.4251ZM66.5521 112H53.0581C50.6361 112 49.4251 110.789 49.4251 108.367V91.759H6.52113C4.56047 91.759 3.00347 91.1823 1.85013 90.029C0.6968 88.8757 0.120133 87.3187 0.120133 85.358V78.611C0.120133 75.151 0.6968 72.3253 1.85013 70.134L36.2771 6.12399C37.4305 4.04799 38.4685 2.66399 39.3911 1.97199C40.4291 1.16466 41.9285 0.760999 43.8891 0.760999H63.4381C65.3988 0.760999 66.9558 1.33766 68.1091 2.491C69.3778 3.64433 70.0121 5.20133 70.0121 7.162V72.729H82.4681C84.7748 72.729 85.9281 73.8823 85.9281 76.189V87.78C85.9281 90.4327 84.7748 91.759 82.4681 91.759H70.0121V108.367C70.0121 109.751 69.7238 110.731 69.1471 111.308C68.6858 111.769 67.8208 112 66.5521 112ZM129.354 92.97H139.561C143.252 92.97 145.847 92.2203 147.346 90.721C148.845 89.1063 149.595 86.4537 149.595 82.763V29.998C149.595 26.3073 148.845 23.7123 147.346 22.213C145.847 20.5983 143.252 19.791 139.561 19.791H129.354C125.663 19.791 123.068 20.5983 121.569 22.213C120.07 23.7123 119.32 26.3073 119.32 29.998V82.763C119.32 86.4537 120.07 89.1063 121.569 90.721C123.068 92.2203 125.663 92.97 129.354 92.97ZM143.021 112H125.721C116.61 112 109.574 109.578 104.615 104.734C99.6555 99.89 97.1758 92.9123 97.1758 83.801V28.96C97.1758 19.8487 99.6555 12.871 104.615 8.027C109.574 3.183 116.61 0.760999 125.721 0.760999H143.021C152.017 0.760999 158.995 3.24066 163.954 8.2C168.913 13.044 171.393 19.964 171.393 28.96V83.801C171.393 92.797 168.913 99.7747 163.954 104.734C158.995 109.578 152.017 112 143.021 112ZM235.772 72.729V19.272L207.746 72.729H235.772ZM252.899 112H239.405C236.983 112 235.772 110.789 235.772 108.367V91.759H192.868C190.907 91.759 189.35 91.1823 188.197 90.029C187.043 88.8757 186.467 87.3187 186.467 85.358V78.611C186.467 75.151 187.043 72.3253 188.197 70.134L222.624 6.12399C223.777 4.04799 224.815 2.66399 225.738 1.97199C226.776 1.16466 228.275 0.760999 230.236 0.760999H249.785C251.745 0.760999 253.302 1.33766 254.456 2.491C255.724 3.64433 256.359 5.20133 256.359 7.162V72.729H268.815C271.121 72.729 272.275 73.8823 272.275 76.189V87.78C272.275 90.4327 271.121 91.759 268.815 91.759H256.359V108.367C256.359 109.751 256.07 110.731 255.494 111.308C255.032 111.769 254.167 112 252.899 112ZM321.016 31.209V4.39399C321.016 1.972 322.227 0.760999 324.649 0.760999H341.084C343.506 0.760999 344.717 1.972 344.717 4.39399V31.209C344.717 35.8223 344.429 41.0123 343.852 46.779C343.391 52.4303 343.045 56.64 342.814 59.408C342.584 62.176 342.353 64.425 342.122 66.155C341.892 67.885 341.776 68.8077 341.776 68.923C341.315 71.345 339.989 72.556 337.797 72.556H327.936C325.745 72.556 324.419 71.345 323.957 68.923C323.957 68.8077 323.842 67.885 323.611 66.155C323.381 64.425 323.092 62.176 322.746 59.408C322.516 56.64 322.285 53.6413 322.054 50.412C321.362 40.9547 321.016 34.5537 321.016 31.209ZM344.198 87.088V108.367C344.198 110.789 343.045 112 340.738 112H325.514C323.208 112 322.054 110.731 322.054 108.194V87.261C322.054 84.9543 323.208 83.801 325.514 83.801H340.738C343.045 83.801 344.198 84.8967 344.198 87.088Z"/>
</mask>
<path d="M49.4251 72.729V19.272L21.3991 72.729H49.4251ZM66.5521 112H53.0581C50.6361 112 49.4251 110.789 49.4251 108.367V91.759H6.52113C4.56047 91.759 3.00347 91.1823 1.85013 90.029C0.6968 88.8757 0.120133 87.3187 0.120133 85.358V78.611C0.120133 75.151 0.6968 72.3253 1.85013 70.134L36.2771 6.12399C37.4305 4.04799 38.4685 2.66399 39.3911 1.97199C40.4291 1.16466 41.9285 0.760999 43.8891 0.760999H63.4381C65.3988 0.760999 66.9558 1.33766 68.1091 2.491C69.3778 3.64433 70.0121 5.20133 70.0121 7.162V72.729H82.4681C84.7748 72.729 85.9281 73.8823 85.9281 76.189V87.78C85.9281 90.4327 84.7748 91.759 82.4681 91.759H70.0121V108.367C70.0121 109.751 69.7238 110.731 69.1471 111.308C68.6858 111.769 67.8208 112 66.5521 112ZM129.354 92.97H139.561C143.252 92.97 145.847 92.2203 147.346 90.721C148.845 89.1063 149.595 86.4537 149.595 82.763V29.998C149.595 26.3073 148.845 23.7123 147.346 22.213C145.847 20.5983 143.252 19.791 139.561 19.791H129.354C125.663 19.791 123.068 20.5983 121.569 22.213C120.07 23.7123 119.32 26.3073 119.32 29.998V82.763C119.32 86.4537 120.07 89.1063 121.569 90.721C123.068 92.2203 125.663 92.97 129.354 92.97ZM143.021 112H125.721C116.61 112 109.574 109.578 104.615 104.734C99.6555 99.89 97.1758 92.9123 97.1758 83.801V28.96C97.1758 19.8487 99.6555 12.871 104.615 8.027C109.574 3.183 116.61 0.760999 125.721 0.760999H143.021C152.017 0.760999 158.995 3.24066 163.954 8.2C168.913 13.044 171.393 19.964 171.393 28.96V83.801C171.393 92.797 168.913 99.7747 163.954 104.734C158.995 109.578 152.017 112 143.021 112ZM235.772 72.729V19.272L207.746 72.729H235.772ZM252.899 112H239.405C236.983 112 235.772 110.789 235.772 108.367V91.759H192.868C190.907 91.759 189.35 91.1823 188.197 90.029C187.043 88.8757 186.467 87.3187 186.467 85.358V78.611C186.467 75.151 187.043 72.3253 188.197 70.134L222.624 6.12399C223.777 4.04799 224.815 2.66399 225.738 1.97199C226.776 1.16466 228.275 0.760999 230.236 0.760999H249.785C251.745 0.760999 253.302 1.33766 254.456 2.491C255.724 3.64433 256.359 5.20133 256.359 7.162V72.729H268.815C271.121 72.729 272.275 73.8823 272.275 76.189V87.78C272.275 90.4327 271.121 91.759 268.815 91.759H256.359V108.367C256.359 109.751 256.07 110.731 255.494 111.308C255.032 111.769 254.167 112 252.899 112ZM321.016 31.209V4.39399C321.016 1.972 322.227 0.760999 324.649 0.760999H341.084C343.506 0.760999 344.717 1.972 344.717 4.39399V31.209C344.717 35.8223 344.429 41.0123 343.852 46.779C343.391 52.4303 343.045 56.64 342.814 59.408C342.584 62.176 342.353 64.425 342.122 66.155C341.892 67.885 341.776 68.8077 341.776 68.923C341.315 71.345 339.989 72.556 337.797 72.556H327.936C325.745 72.556 324.419 71.345 323.957 68.923C323.957 68.8077 323.842 67.885 323.611 66.155C323.381 64.425 323.092 62.176 322.746 59.408C322.516 56.64 322.285 53.6413 322.054 50.412C321.362 40.9547 321.016 34.5537 321.016 31.209ZM344.198 87.088V108.367C344.198 110.789 343.045 112 340.738 112H325.514C323.208 112 322.054 110.731 322.054 108.194V87.261C322.054 84.9543 323.208 83.801 325.514 83.801H340.738C343.045 83.801 344.198 84.8967 344.198 87.088Z" fill="white"/>
<path d="M49.4251 72.729V73.729H50.4251V72.729H49.4251ZM49.4251 19.272H50.4251L48.5395 18.8077L49.4251 19.272ZM21.3991 72.729L20.5135 72.2647L19.7458 73.729H21.3991V72.729ZM49.4251 91.759H50.4251V90.759H49.4251V91.759ZM1.85013 90.029L1.14303 90.7361L1.85013 90.029ZM1.85013 70.134L0.969397 69.6603L0.965215 69.6683L1.85013 70.134ZM36.2771 6.12399L35.4029 5.6383L35.3964 5.65032L36.2771 6.12399ZM39.3911 1.97199L39.9911 2.772L39.9981 2.76673L40.0051 2.76135L39.3911 1.97199ZM68.1091 2.491L67.402 3.1981L67.4189 3.21493L67.4365 3.23094L68.1091 2.491ZM70.0121 72.729H69.0121V73.729H70.0121V72.729ZM70.0121 91.759V90.759H69.0121V91.759H70.0121ZM69.1471 111.308L68.44 110.601V110.601L69.1471 111.308ZM50.4251 72.729V19.272H48.4251V72.729H50.4251ZM48.5395 18.8077L20.5135 72.2647L22.2848 73.1933L50.3108 19.7363L48.5395 18.8077ZM21.3991 73.729H49.4251V71.729H21.3991V73.729ZM66.5521 111H53.0581V113H66.5521V111ZM53.0581 111C52.0013 111 51.3923 110.736 51.0405 110.385C50.6887 110.033 50.4251 109.424 50.4251 108.367H48.4251C48.4251 109.732 48.7671 110.94 49.6263 111.799C50.4855 112.658 51.693 113 53.0581 113V111ZM50.4251 108.367V91.759H48.4251V108.367H50.4251ZM49.4251 90.759H6.52113V92.759H49.4251V90.759ZM6.52113 90.759C4.76835 90.759 3.48605 90.2507 2.55724 89.3219L1.14303 90.7361C2.52088 92.114 4.35258 92.759 6.52113 92.759V90.759ZM2.55724 89.3219C1.62843 88.3931 1.12013 87.1108 1.12013 85.358H-0.879867C-0.879867 87.5266 -0.234828 89.3583 1.14303 90.7361L2.55724 89.3219ZM1.12013 85.358V78.611H-0.879867V85.358H1.12013ZM1.12013 78.611C1.12013 75.2524 1.6813 72.6019 2.73505 70.5997L0.965215 69.6683C-0.287705 72.0488 -0.879867 75.0496 -0.879867 78.611H1.12013ZM2.73083 70.6077L37.1578 6.59767L35.3964 5.65032L0.969433 69.6603L2.73083 70.6077ZM37.1513 6.60963C38.2935 4.55361 39.2474 3.32983 39.9911 2.772L38.7911 1.17199C37.6896 1.99816 36.5674 3.54237 35.403 5.63835L37.1513 6.60963ZM40.0051 2.76135C40.7999 2.14319 42.0464 1.761 43.8891 1.761V-0.239001C41.8106 -0.239001 40.0584 0.186139 38.7772 1.18264L40.0051 2.76135ZM43.8891 1.761H63.4381V-0.239001H43.8891V1.761ZM63.4381 1.761C65.1909 1.761 66.4732 2.26929 67.402 3.1981L68.8162 1.78389C67.4384 0.406037 65.6067 -0.239001 63.4381 -0.239001V1.761ZM67.4365 3.23094C68.4658 4.16668 69.0121 5.43846 69.0121 7.162H71.0121C71.0121 4.9642 70.2898 3.12198 68.7818 1.75106L67.4365 3.23094ZM69.0121 7.162V72.729H71.0121V7.162H69.0121ZM70.0121 73.729H82.4681V71.729H70.0121V73.729ZM82.4681 73.729C83.4673 73.729 84.033 73.9781 84.356 74.3011C84.679 74.6241 84.9281 75.1898 84.9281 76.189H86.9281C86.9281 74.8815 86.6006 73.7172 85.7702 72.8869C84.9399 72.0565 83.7756 71.729 82.4681 71.729V73.729ZM84.9281 76.189V87.78H86.9281V76.189H84.9281ZM84.9281 87.78C84.9281 88.9838 84.6634 89.6999 84.3085 90.1081C83.9769 90.4895 83.4281 90.759 82.4681 90.759V92.759C83.8148 92.759 84.9961 92.3653 85.8177 91.4204C86.6162 90.5022 86.9281 89.2289 86.9281 87.78H84.9281ZM82.4681 90.759H70.0121V92.759H82.4681V90.759ZM69.0121 91.759V108.367H71.0121V91.759H69.0121ZM69.0121 108.367C69.0121 109.659 68.7345 110.306 68.44 110.601L69.8542 112.015C70.7131 111.156 71.0121 109.843 71.0121 108.367H69.0121ZM68.44 110.601C68.2792 110.762 67.776 111 66.5521 111V113C67.8656 113 69.0924 112.777 69.8542 112.015L68.44 110.601ZM147.346 90.721L148.053 91.4281L148.066 91.415L148.079 91.4015L147.346 90.721ZM147.346 22.213L146.613 22.8934L146.626 22.907L146.639 22.9201L147.346 22.213ZM121.569 22.213L122.276 22.9201L122.289 22.907L122.302 22.8934L121.569 22.213ZM121.569 90.721L120.836 91.4015L120.849 91.415L120.862 91.4281L121.569 90.721ZM104.615 104.734L103.916 105.449L104.615 104.734ZM104.615 8.027L103.916 7.31162L104.615 8.027ZM163.954 8.2L163.247 8.90715L163.255 8.91537L163.954 8.2ZM163.954 104.734L164.653 105.449L164.661 105.441L163.954 104.734ZM129.354 93.97H139.561V91.97H129.354V93.97ZM139.561 93.97C143.335 93.97 146.268 93.2132 148.053 91.4281L146.639 90.0139C145.425 91.2275 143.168 91.97 139.561 91.97V93.97ZM148.079 91.4015C149.834 89.5113 150.595 86.5471 150.595 82.763H148.595C148.595 86.3603 147.857 88.7013 146.613 90.0406L148.079 91.4015ZM150.595 82.763V29.998H148.595V82.763H150.595ZM150.595 29.998C150.595 26.2243 149.838 23.291 148.053 21.5059L146.639 22.9201C147.852 24.1337 148.595 26.3904 148.595 29.998H150.595ZM148.079 21.5325C146.295 19.6122 143.35 18.791 139.561 18.791V20.791C143.153 20.791 145.398 21.5845 146.613 22.8934L148.079 21.5325ZM139.561 18.791H129.354V20.791H139.561V18.791ZM129.354 18.791C125.564 18.791 122.619 19.6122 120.836 21.5325L122.302 22.8934C123.517 21.5845 125.762 20.791 129.354 20.791V18.791ZM120.862 21.5059C119.077 23.291 118.32 26.2243 118.32 29.998H120.32C120.32 26.3904 121.062 24.1337 122.276 22.9201L120.862 21.5059ZM118.32 29.998V82.763H120.32V29.998H118.32ZM118.32 82.763C118.32 86.5471 119.081 89.5113 120.836 91.4015L122.302 90.0406C121.058 88.7013 120.32 86.3603 120.32 82.763H118.32ZM120.862 91.4281C122.647 93.2132 125.58 93.97 129.354 93.97V91.97C125.746 91.97 123.49 91.2275 122.276 90.0139L120.862 91.4281ZM143.021 111H125.721V113H143.021V111ZM125.721 111C116.786 111 110.033 108.628 105.314 104.019L103.916 105.449C109.115 110.528 116.433 113 125.721 113V111ZM105.314 104.019C100.602 99.4166 98.1758 92.7312 98.1758 83.801H96.1758C96.1758 93.0934 98.709 100.363 103.916 105.449L105.314 104.019ZM98.1758 83.801V28.96H96.1758V83.801H98.1758ZM98.1758 28.96C98.1758 20.0298 100.602 13.3444 105.314 8.74237L103.916 7.31162C98.709 12.3976 96.1758 19.6676 96.1758 28.96H98.1758ZM105.314 8.74237C110.033 4.13264 116.786 1.761 125.721 1.761V-0.239001C116.433 -0.239001 109.115 2.23336 103.916 7.31162L105.314 8.74237ZM125.721 1.761H143.021V-0.239001H125.721V1.761ZM143.021 1.761C151.83 1.761 158.524 4.18435 163.247 8.9071L164.661 7.49289C159.465 2.29698 152.204 -0.239001 143.021 -0.239001V1.761ZM163.255 8.91537C167.969 13.5197 170.393 20.1494 170.393 28.96H172.393C172.393 19.7786 169.857 12.5683 164.653 7.48462L163.255 8.91537ZM170.393 28.96V83.801H172.393V28.96H170.393ZM170.393 83.801C170.393 92.6103 167.969 99.3041 163.247 104.027L164.661 105.441C169.857 100.245 172.393 92.9837 172.393 83.801H170.393ZM163.255 104.019C158.533 108.631 151.836 111 143.021 111V113C152.197 113 159.456 110.525 164.653 105.449L163.255 104.019ZM235.772 72.729V73.729H236.772V72.729H235.772ZM235.772 19.272H236.772L234.886 18.8077L235.772 19.272ZM207.746 72.729L206.86 72.2647L206.092 73.729H207.746V72.729ZM235.772 91.759H236.772V90.759H235.772V91.759ZM188.197 90.029L187.49 90.7361L188.197 90.029ZM188.197 70.134L187.316 69.6603L187.312 69.6683L188.197 70.134ZM222.624 6.12399L221.75 5.6383L221.743 5.65032L222.624 6.12399ZM225.738 1.97199L226.338 2.772L226.345 2.76673L226.352 2.76135L225.738 1.97199ZM254.456 2.491L253.749 3.1981L253.766 3.21493L253.783 3.23094L254.456 2.491ZM256.359 72.729H255.359V73.729H256.359V72.729ZM256.359 91.759V90.759H255.359V91.759H256.359ZM255.494 111.308L254.787 110.601V110.601L255.494 111.308ZM236.772 72.729V19.272H234.772V72.729H236.772ZM234.886 18.8077L206.86 72.2647L208.631 73.1933L236.657 19.7363L234.886 18.8077ZM207.746 73.729H235.772V71.729H207.746V73.729ZM252.899 111H239.405V113H252.899V111ZM239.405 111C238.348 111 237.739 110.736 237.387 110.385C237.035 110.033 236.772 109.424 236.772 108.367H234.772C234.772 109.732 235.114 110.94 235.973 111.799C236.832 112.658 238.04 113 239.405 113V111ZM236.772 108.367V91.759H234.772V108.367H236.772ZM235.772 90.759H192.868V92.759H235.772V90.759ZM192.868 90.759C191.115 90.759 189.833 90.2507 188.904 89.3219L187.49 90.7361C188.868 92.114 190.699 92.759 192.868 92.759V90.759ZM188.904 89.3219C187.975 88.3931 187.467 87.1108 187.467 85.358H185.467C185.467 87.5266 186.112 89.3583 187.49 90.7361L188.904 89.3219ZM187.467 85.358V78.611H185.467V85.358H187.467ZM187.467 78.611C187.467 75.2524 188.028 72.6019 189.082 70.5997L187.312 69.6683C186.059 72.0488 185.467 75.0496 185.467 78.611H187.467ZM189.078 70.6077L223.505 6.59767L221.743 5.65032L187.316 69.6603L189.078 70.6077ZM223.498 6.60963C224.64 4.55361 225.594 3.32983 226.338 2.772L225.138 1.17199C224.036 1.99816 222.914 3.54237 221.75 5.63835L223.498 6.60963ZM226.352 2.76135C227.147 2.14319 228.393 1.761 230.236 1.761V-0.239001C228.157 -0.239001 226.405 0.186139 225.124 1.18264L226.352 2.76135ZM230.236 1.761H249.785V-0.239001H230.236V1.761ZM249.785 1.761C251.538 1.761 252.82 2.26929 253.749 3.1981L255.163 1.78389C253.785 0.406037 251.953 -0.239001 249.785 -0.239001V1.761ZM253.783 3.23094C254.812 4.16668 255.359 5.43846 255.359 7.162H257.359C257.359 4.9642 256.637 3.12198 255.128 1.75106L253.783 3.23094ZM255.359 7.162V72.729H257.359V7.162H255.359ZM256.359 73.729H268.815V71.729H256.359V73.729ZM268.815 73.729C269.814 73.729 270.38 73.9781 270.703 74.3011C271.026 74.6241 271.275 75.1898 271.275 76.189H273.275C273.275 74.8815 272.947 73.7172 272.117 72.8869C271.287 72.0565 270.122 71.729 268.815 71.729V73.729ZM271.275 76.189V87.78H273.275V76.189H271.275ZM271.275 87.78C271.275 88.9838 271.01 89.6999 270.655 90.1081C270.324 90.4895 269.775 90.759 268.815 90.759V92.759C270.161 92.759 271.343 92.3653 272.164 91.4204C272.963 90.5022 273.275 89.2289 273.275 87.78H271.275ZM268.815 90.759H256.359V92.759H268.815V90.759ZM255.359 91.759V108.367H257.359V91.759H255.359ZM255.359 108.367C255.359 109.659 255.081 110.306 254.787 110.601L256.201 112.015C257.06 111.156 257.359 109.843 257.359 108.367H255.359ZM254.787 110.601C254.626 110.762 254.123 111 252.899 111V113C254.212 113 255.439 112.777 256.201 112.015L254.787 110.601ZM343.852 46.779L342.857 46.6795L342.856 46.6886L342.856 46.6976L343.852 46.779ZM342.814 59.408L343.811 59.491L342.814 59.408ZM342.122 66.155L341.131 66.0228L342.122 66.155ZM341.776 68.923L342.759 69.1101L342.776 69.0174V68.923H341.776ZM323.957 68.923H322.957V69.0174L322.975 69.1101L323.957 68.923ZM323.611 66.155L324.602 66.0228L323.611 66.155ZM322.746 59.408L321.75 59.491L321.751 59.5116L321.754 59.532L322.746 59.408ZM322.054 50.412L323.052 50.3408L323.052 50.339L322.054 50.412ZM322.016 31.209V4.39399H320.016V31.209H322.016ZM322.016 4.39399C322.016 3.33714 322.28 2.72817 322.632 2.37635C322.983 2.02453 323.592 1.761 324.649 1.761V-0.239001C323.284 -0.239001 322.077 0.102962 321.217 0.96214C320.358 1.82132 320.016 3.02885 320.016 4.39399H322.016ZM324.649 1.761H341.084V-0.239001H324.649V1.761ZM341.084 1.761C342.141 1.761 342.75 2.02453 343.102 2.37635C343.454 2.72817 343.717 3.33714 343.717 4.39399H345.717C345.717 3.02885 345.375 1.82132 344.516 0.96214C343.657 0.102962 342.449 -0.239001 341.084 -0.239001V1.761ZM343.717 4.39399V31.209H345.717V4.39399H343.717ZM343.717 31.209C343.717 35.782 343.431 40.9379 342.857 46.6795L344.847 46.8785C345.426 41.0867 345.717 35.8627 345.717 31.209H343.717ZM342.856 46.6976C342.394 52.3489 342.048 56.5578 341.818 59.325L343.811 59.491C344.042 56.7222 344.388 52.5118 344.849 46.8604L342.856 46.6976ZM341.818 59.325C341.588 62.0849 341.359 64.3158 341.131 66.0228L343.113 66.2872C343.347 64.5342 343.579 62.2671 343.811 59.491L341.818 59.325ZM341.131 66.0228C341.016 66.8886 340.929 67.555 340.87 68.0205C340.841 68.2528 340.819 68.4382 340.804 68.5747C340.792 68.6793 340.776 68.8251 340.776 68.923H342.776C342.776 68.9632 342.775 68.9505 342.792 68.7956C342.805 68.6725 342.826 68.4976 342.855 68.2685C342.912 67.8113 342.998 67.1514 343.113 66.2872L341.131 66.0228ZM340.794 68.7359C340.589 69.8124 340.215 70.495 339.761 70.9093C339.321 71.3113 338.701 71.556 337.797 71.556V73.556C339.085 73.556 340.224 73.1952 341.11 72.3862C341.982 71.5895 342.502 70.4556 342.759 69.1101L340.794 68.7359ZM337.797 71.556H327.936V73.556H337.797V71.556ZM327.936 71.556C327.032 71.556 326.413 71.3113 325.972 70.9093C325.519 70.495 325.145 69.8124 324.94 68.7359L322.975 69.1101C323.231 70.4556 323.751 71.5895 324.624 72.3862C325.51 73.1952 326.649 73.556 327.936 73.556V71.556ZM324.957 68.923C324.957 68.8251 324.941 68.6793 324.929 68.5747C324.914 68.4382 324.892 68.2528 324.863 68.0205C324.805 67.555 324.718 66.8886 324.602 66.0228L322.62 66.2872C322.735 67.1514 322.821 67.8113 322.878 68.2685C322.907 68.4976 322.928 68.6725 322.942 68.7956C322.959 68.9505 322.957 68.9632 322.957 68.923H324.957ZM324.602 66.0228C324.372 64.2966 324.084 62.0506 323.738 59.284L321.754 59.532C322.1 62.3014 322.389 64.5534 322.62 66.2872L324.602 66.0228ZM323.743 59.325C323.512 56.5615 323.282 53.5668 323.052 50.3408L321.057 50.4832C321.288 53.7159 321.519 56.7185 321.75 59.491L323.743 59.325ZM323.052 50.339C322.359 40.8771 322.016 34.5116 322.016 31.209H320.016C320.016 34.5958 320.365 41.0322 321.057 50.485L323.052 50.339ZM343.198 87.088V108.367H345.198V87.088H343.198ZM343.198 108.367C343.198 109.436 342.943 110.052 342.609 110.402C342.284 110.744 341.725 111 340.738 111V113C342.058 113 343.229 112.651 344.057 111.781C344.877 110.921 345.198 109.72 345.198 108.367H343.198ZM340.738 111H325.514V113H340.738V111ZM325.514 111C324.541 111 323.987 110.737 323.659 110.376C323.315 109.997 323.054 109.331 323.054 108.194H321.054C321.054 109.594 321.37 110.831 322.179 111.721C323.005 112.629 324.181 113 325.514 113V111ZM323.054 108.194V87.261H321.054V108.194H323.054ZM323.054 87.261C323.054 86.2618 323.303 85.6961 323.626 85.3731C323.949 85.0501 324.515 84.801 325.514 84.801V82.801C324.207 82.801 323.042 83.1285 322.212 83.9589C321.382 84.7892 321.054 85.9535 321.054 87.261H323.054ZM325.514 84.801H340.738V82.801H325.514V84.801ZM340.738 84.801C341.75 84.801 342.323 85.0422 342.644 85.3477C342.957 85.6442 343.198 86.1599 343.198 87.088H345.198C345.198 85.8247 344.863 84.697 344.022 83.8978C343.19 83.1077 342.033 82.801 340.738 82.801V84.801Z" fill="#C9F31D" mask="url(#path-1-outside-1_251_486)"/>
</svg>
