<svg width="173" height="54" viewBox="0 0 173 54" fill="none" xmlns="http://www.w3.org/2000/svg">
<path d="M43.5256 35L25.3626 36.3462C20.2213 36.7273 15.6329 33.1372 14.7659 28.0552L11.5152 9.00002" stroke="#C9F31D" stroke-width="8"/>
<path d="M6.02561 33.9998L15.6511 21.5224C18.0163 18.4565 21.9388 17.0316 25.7203 17.8647L42.7192 21.6095" stroke="#C9F31D" stroke-width="8"/>
<path d="M14.5256 45.7312L28.5746 29.059C31.3715 25.74 31.708 20.9958 29.4076 17.3152L20.4607 2.99996" stroke="#C9F31D" stroke-width="8"/>
<path d="M66.4358 40H62.9508C62.3768 40 62.0898 39.713 62.0898 39.139V14.498C62.0898 13.924 62.3768 13.637 62.9508 13.637H72.9548C75.0868 13.637 76.7405 14.2247 77.9158 15.4C79.0911 16.548 79.6788 18.188 79.6788 20.32V24.256C79.6788 26.388 79.0911 28.0417 77.9158 29.217C76.7405 30.365 75.0868 30.939 72.9548 30.939H67.7888C67.4608 30.939 67.2968 31.0893 67.2968 31.39V39.139C67.2968 39.713 67.0098 40 66.4358 40ZM67.7478 26.388H72.0938C72.9685 26.388 73.5835 26.2103 73.9388 25.855C74.2941 25.4723 74.4718 24.8573 74.4718 24.01V20.566C74.4718 19.6913 74.2941 19.0763 73.9388 18.721C73.5835 18.3383 72.9685 18.147 72.0938 18.147H67.7478C67.4471 18.147 67.2968 18.2973 67.2968 18.598V25.937C67.2968 26.2377 67.4471 26.388 67.7478 26.388ZM93.425 40H89.776C87.6167 40 85.9493 39.426 84.774 38.278C83.5987 37.13 83.011 35.4763 83.011 33.317V25.773C83.011 23.6137 83.5987 21.96 84.774 20.812C85.9493 19.664 87.6167 19.09 89.776 19.09H93.425C95.557 19.09 97.2107 19.6777 98.386 20.853C99.5887 22.001 100.19 23.641 100.19 25.773V33.317C100.19 35.449 99.5887 37.1027 98.386 38.278C97.2107 39.426 95.557 40 93.425 40ZM90.555 35.531H92.646C93.5207 35.531 94.1357 35.3533 94.491 34.998C94.8737 34.6427 95.065 34.0277 95.065 33.153V25.937C95.065 25.0623 94.8737 24.4473 94.491 24.092C94.1357 23.7367 93.5207 23.559 92.646 23.559H90.555C89.6803 23.559 89.0653 23.7367 88.71 24.092C88.3547 24.4473 88.177 25.0623 88.177 25.937V33.153C88.177 34.0277 88.3547 34.6427 88.71 34.998C89.0653 35.3533 89.6803 35.531 90.555 35.531ZM108.627 40H105.142C104.568 40 104.281 39.713 104.281 39.139V19.951C104.281 19.377 104.568 19.09 105.142 19.09H108.627C109.201 19.09 109.488 19.377 109.488 19.951V21.345H109.652C109.953 20.607 110.486 20.0467 111.251 19.664C112.017 19.2813 112.823 19.09 113.67 19.09H115.146C115.693 19.09 115.966 19.377 115.966 19.951V22.78C115.966 23.108 115.898 23.3403 115.761 23.477C115.652 23.5863 115.447 23.6273 115.146 23.6H112.317C110.431 23.6 109.488 24.666 109.488 26.798V39.139C109.488 39.713 109.201 40 108.627 40ZM119.026 23.6H117.386C117.058 23.6 116.826 23.5453 116.689 23.436C116.58 23.3267 116.525 23.108 116.525 22.78V19.951C116.525 19.377 116.812 19.09 117.386 19.09H119.026C119.327 19.09 119.477 18.9397 119.477 18.639V14.744C119.477 14.17 119.778 13.883 120.379 13.883H123.823C124.397 13.883 124.684 14.17 124.684 14.744V18.639C124.684 18.9397 124.848 19.09 125.176 19.09H128.374C128.948 19.09 129.235 19.377 129.235 19.951V22.78C129.235 23.0807 129.167 23.2993 129.03 23.436C128.921 23.5453 128.702 23.6 128.374 23.6H125.176C124.848 23.6 124.684 23.7503 124.684 24.051V33.112C124.684 33.9593 124.876 34.5743 125.258 34.957C125.641 35.3123 126.27 35.49 127.144 35.49H128.784C129.358 35.49 129.645 35.777 129.645 36.351V39.18C129.645 39.4807 129.577 39.6993 129.44 39.836C129.331 39.9453 129.112 40 128.784 40H126.283C124.124 40 122.443 39.426 121.24 38.278C120.065 37.13 119.477 35.49 119.477 33.358V24.051C119.477 23.7503 119.327 23.6 119.026 23.6ZM140.614 19.09H143.894C144.222 19.09 144.441 19.1583 144.55 19.295C144.687 19.4043 144.755 19.6093 144.755 19.91V22.739C144.755 23.313 144.468 23.6 143.894 23.6H140.614C140.314 23.6 140.163 23.7503 140.163 24.051V39.139C140.163 39.713 139.863 40 139.261 40H135.817C135.243 40 134.956 39.713 134.956 39.139V24.051C134.956 23.7503 134.792 23.6 134.464 23.6H132.578C132.004 23.6 131.717 23.313 131.717 22.739V19.91C131.717 19.582 131.772 19.3633 131.881 19.254C132.018 19.1447 132.25 19.09 132.578 19.09H134.464C134.792 19.09 134.956 18.9397 134.956 18.639V17.86C134.956 15.7007 135.517 14.047 136.637 12.899C137.785 11.751 139.439 11.177 141.598 11.177H143.935C144.263 11.177 144.482 11.2453 144.591 11.382C144.701 11.4913 144.755 11.6963 144.755 11.997V14.826C144.755 15.4 144.482 15.687 143.935 15.687H142.418C141.544 15.687 140.942 15.8783 140.614 16.261C140.314 16.6163 140.163 17.2313 140.163 18.106V18.639C140.163 18.9397 140.314 19.09 140.614 19.09ZM150.886 40H146.745C146.034 40 145.843 39.713 146.171 39.139L151.337 29.34L146.171 19.951C145.897 19.377 146.061 19.09 146.663 19.09H150.845C151.501 19.09 151.924 19.377 152.116 19.951L154.699 26.183H154.863L157.118 19.951C157.309 19.377 157.733 19.09 158.389 19.09H162.489C163.199 19.09 163.377 19.377 163.022 19.951L158.102 29.34L163.391 39.139C163.527 39.385 163.541 39.59 163.432 39.754C163.35 39.918 163.172 40 162.899 40H158.676C158.102 40 157.692 39.713 157.446 39.139L154.863 32.866H154.699L152.116 39.139C151.924 39.713 151.514 40 150.886 40ZM171.013 34.096V39.139C171.013 39.713 170.753 40 170.234 40H166.585C166.038 40 165.765 39.713 165.765 39.139V34.137C165.765 33.5903 166.038 33.317 166.585 33.317H170.234C170.753 33.317 171.013 33.5767 171.013 34.096Z" fill="#222222"/>
</svg>
