<svg width="14" height="6" viewBox="0 0 14 6" fill="none" xmlns="http://www.w3.org/2000/svg">
<path opacity="0.967" fill-rule="evenodd" clip-rule="evenodd" d="M13.6195 2.88617C13.6195 2.96375 13.6195 3.04135 13.6195 3.11893C12.5527 4.06403 11.4798 5.0067 10.4009 5.94691C10.1121 6.06443 9.93482 5.98683 9.86885 5.71416C9.88423 5.67201 9.89753 5.62932 9.90875 5.58614C10.7821 4.82193 11.6555 4.0577 12.5289 3.2935C8.42356 3.28575 4.31817 3.27797 0.212805 3.27022C0.120731 3.23985 0.0497957 3.18943 0 3.11893C0 3.04135 0 2.96375 0 2.88617C0.0497957 2.81567 0.120731 2.76526 0.212805 2.73488C4.30931 2.72713 8.40582 2.71936 12.5023 2.71161C11.6563 1.94803 10.8006 1.19157 9.93535 0.442236C9.81092 0.202102 9.89516 0.0546976 10.1881 0C10.2525 0.00218791 10.3146 0.0138257 10.3743 0.0349134C11.4621 0.982882 12.5439 1.93332 13.6195 2.88617Z" fill="#222222"/>
</svg>
