<?xml version="1.0" encoding="UTF-8"?>
<!DOCTYPE svg PUBLIC "-//W3C//DTD SVG 1.1//EN" "http://www.w3.org/Graphics/SVG/1.1/DTD/svg11.dtd">
<svg xmlns="http://www.w3.org/2000/svg" version="1.1" width="512px" height="512px" style="shape-rendering:geometricPrecision; text-rendering:geometricPrecision; image-rendering:optimizeQuality; fill-rule:evenodd; clip-rule:evenodd" xmlns:xlink="http://www.w3.org/1999/xlink">
<g><path style="opacity:0.923" fill="#000000" d="M 76.5,8.5 C 84.84,8.3336 93.1733,8.50027 101.5,9C 104.583,9.78597 106.749,11.6193 108,14.5C 109.282,29.4599 115.782,32.6265 127.5,24C 131.956,23.1327 136.289,23.4661 140.5,25C 146.078,29.9071 150.911,35.4071 155,41.5C 155.667,44.5 155.667,47.5 155,50.5C 146.161,62.6167 149.328,69.45 164.5,71C 167.381,72.2506 169.214,74.4173 170,77.5C 170.94,86.2695 170.607,94.9362 169,103.5C 165.162,107.783 160.329,109.95 154.5,110C 150.64,112.548 149.14,116.048 150,120.5C 155.959,126.802 156.959,133.802 153,141.5C 148.425,146.746 143.258,151.246 137.5,155C 134.5,155.667 131.5,155.667 128.5,155C 125.212,152.699 121.712,150.866 118,149.5C 114.575,149.919 111.909,151.586 110,154.5C 110.144,161.384 107.311,166.55 101.5,170C 93.5,170.667 85.5,170.667 77.5,170C 74.4173,169.214 72.2506,167.381 71,164.5C 69.45,149.328 62.6167,146.161 50.5,155C 45.8887,156.007 41.5554,155.34 37.5,153C 32.6329,148.468 28.1329,143.634 24,138.5C 23.3333,134.833 23.3333,131.167 24,127.5C 32.6265,115.782 29.4599,109.282 14.5,108C 11.6193,106.749 9.78597,104.583 9,101.5C 8.33333,93.1667 8.33333,84.8333 9,76.5C 10.0458,74.9095 11.2125,73.4095 12.5,72C 16.7452,70.3492 21.0785,69.0159 25.5,68C 27.346,65.9764 28.6793,63.6431 29.5,61C 28.1205,57.2804 26.2872,53.7804 24,50.5C 23.1462,46.3749 23.4796,42.3749 25,38.5C 29.8653,33.3 35.0319,28.4666 40.5,24C 43.8333,23.3333 47.1667,23.3333 50.5,24C 53.7804,26.2872 57.2804,28.1205 61,29.5C 64.6222,28.6973 67.2888,26.6973 69,23.5C 68.9567,17.0745 71.4567,12.0745 76.5,8.5 Z M 84.5,22.5 C 87.8333,22.5 91.1667,22.5 94.5,22.5C 96.3081,36.1384 104.141,43.4718 118,44.5C 123.31,44.1192 128.143,42.4526 132.5,39.5C 134.984,41.483 137.317,43.6496 139.5,46C 131.913,58.388 133.247,69.7213 143.5,80C 147.203,82.354 151.203,83.854 155.5,84.5C 155.5,87.8333 155.5,91.1667 155.5,94.5C 145.992,95.5126 139.492,100.513 136,109.5C 133.378,117.906 134.545,125.739 139.5,133C 137.317,135.35 134.984,137.517 132.5,139.5C 117.471,130.966 105.304,133.966 96,148.5C 95.023,150.74 94.523,153.073 94.5,155.5C 91.1667,155.5 87.8333,155.5 84.5,155.5C 80.3225,138.571 69.6559,132.071 52.5,136C 50.2537,137.039 48.087,138.206 46,139.5C 43.6496,137.317 41.483,134.984 39.5,132.5C 47.4075,118.632 45.0741,106.799 32.5,97C 29.2799,95.6476 25.9466,94.8143 22.5,94.5C 22.5,91.1667 22.5,87.8333 22.5,84.5C 36.2119,82.4422 43.5453,74.4422 44.5,60.5C 44.0523,55.01 42.5523,50.01 40,45.5C 42.0165,43.316 44.1831,41.316 46.5,39.5C 59.7408,47.313 71.2408,45.313 81,33.5C 83.0757,30.1069 84.2424,26.4402 84.5,22.5 Z M 83.5,61.5 C 105.674,60.8433 116.841,71.5099 117,93.5C 111.898,112.306 99.7318,119.806 80.5,116C 62.9017,107.298 57.735,93.7977 65,75.5C 69.526,68.5054 75.6926,63.8387 83.5,61.5 Z"/></g>
<g><path style="opacity:0.896" fill="#000000" d="M 427.5,8.5 C 435.412,6.6758 439.245,9.6758 439,17.5C 433.031,29.2869 426.197,40.4535 418.5,51C 410.829,52.3259 407.329,49.1592 408,41.5C 414.008,30.1427 420.508,19.1427 427.5,8.5 Z"/></g>
<g><path style="opacity:0.922" fill="#000000" d="M 332.5,11.5 C 344.278,10.9226 353.778,15.2559 361,24.5C 370.626,40.9184 380.126,57.4184 389.5,74C 394.391,73.1291 399.391,72.6291 404.5,72.5C 427.67,74.5095 438.504,87.1762 437,110.5C 434.801,119.228 430.301,126.561 423.5,132.5C 433.133,149.962 442.967,167.295 453,184.5C 458.049,203.568 451.549,216.734 433.5,224C 419.21,227.179 408.21,222.679 400.5,210.5C 358.628,209.633 318.628,217.966 280.5,235.5C 296.512,258.189 313.012,280.523 330,302.5C 334.667,309.5 334.667,316.5 330,323.5C 324.054,329.455 317.554,334.622 310.5,339C 302.504,341.19 296.004,339.023 291,332.5C 274.026,309.198 256.693,286.198 239,263.5C 212.104,276.387 188.437,272.053 168,250.5C 150.756,223.337 153.256,198.171 175.5,175C 190.504,165.496 205.838,156.496 221.5,148C 223.898,147.626 226.231,147.626 228.5,148C 262.718,123.289 290.385,92.7893 311.5,56.5C 303.265,39.3891 306.931,25.5558 322.5,15C 325.85,13.5137 329.184,12.347 332.5,11.5 Z M 334.5,26.5 C 339.794,26.7309 344.294,28.7309 348,32.5C 378.333,85.1667 408.667,137.833 439,190.5C 440.996,204.17 435.162,210.336 421.5,209C 418.461,207.969 415.961,206.135 414,203.5C 383.667,150.833 353.333,98.1667 323,45.5C 321.264,35.6178 325.098,29.2845 334.5,26.5 Z M 319.5,72.5 C 343.897,112.277 367.563,152.61 390.5,193.5C 349.211,196.031 309.711,205.697 272,222.5C 260.167,202.167 248.333,181.833 236.5,161.5C 261.379,143.123 283.546,121.79 303,97.5C 309.007,89.481 314.507,81.1477 319.5,72.5 Z M 399.5,87.5 C 412.79,85.9576 420.456,91.7909 422.5,105C 422.117,110.099 420.117,114.433 416.5,118C 415.668,118.688 415.002,118.521 414.5,117.5C 409.167,108.167 403.833,98.8333 398.5,89.5C 398.863,88.8165 399.196,88.1499 399.5,87.5 Z M 220.5,165.5 C 234.185,187.689 247.518,210.189 260.5,233C 248.996,239.92 237.329,246.586 225.5,253C 205.209,259.237 189.042,253.737 177,236.5C 167.657,216.728 171.157,199.561 187.5,185C 198.67,178.637 209.67,172.137 220.5,165.5 Z M 267.5,246.5 C 268.496,246.414 269.329,246.748 270,247.5C 285.801,269.601 301.968,291.434 318.5,313C 314.612,317.391 310.279,321.224 305.5,324.5C 288.173,302.333 271.006,280 254,257.5C 253.316,256.216 253.483,255.049 254.5,254C 259.002,251.636 263.335,249.136 267.5,246.5 Z"/></g>
<g><path style="opacity:0.922" fill="#000000" d="M 82.5,46.5 C 109.491,45.0096 125.991,57.343 132,83.5C 133.513,109.979 121.346,126.146 95.5,132C 69.548,133.448 53.3813,121.615 47,96.5C 45.1465,69.8862 56.9799,53.2195 82.5,46.5 Z M 83.5,61.5 C 75.6926,63.8387 69.526,68.5054 65,75.5C 57.735,93.7977 62.9017,107.298 80.5,116C 99.7318,119.806 111.898,112.306 117,93.5C 116.841,71.5099 105.674,60.8433 83.5,61.5 Z"/></g>
<g><path style="opacity:0.895" fill="#000000" d="M 481.5,51.5 C 488.657,51.155 491.824,54.4884 491,61.5C 490.215,63.286 489.049,64.786 487.5,66C 477.525,71.9032 467.359,77.4032 457,82.5C 449.318,80.4776 447.485,75.9776 451.5,69C 461.41,62.9042 471.41,57.0708 481.5,51.5 Z"/></g>
<g><path style="opacity:0.912" fill="#000000" d="M 459.5,118.5 C 472.504,118.333 485.504,118.5 498.5,119C 502.212,121.513 503.378,125.013 502,129.5C 501.5,131.333 500.333,132.5 498.5,133C 485.5,133.667 472.5,133.667 459.5,133C 456.634,131.607 455.301,129.274 455.5,126C 455.43,122.634 456.763,120.134 459.5,118.5 Z"/></g>
<g><path style="opacity:0.931" fill="#000000" d="M 132.5,202.5 C 143.314,201.812 146.314,206.312 141.5,216C 112.837,222.104 86.5037,233.437 62.5,250C 47.2905,261.6 35.7905,276.1 28,293.5C 18.8339,320.332 22.8339,344.998 40,367.5C 55.061,385.889 73.561,399.723 95.5,409C 98.1941,411.653 99.0274,414.82 98,418.5C 93.1719,438.137 88.8386,457.803 85,477.5C 109.079,460.543 133.246,443.71 157.5,427C 186.464,429.148 215.131,427.148 243.5,421C 244.118,412.852 244.951,404.685 246,396.5C 248.368,391.565 252.201,388.398 257.5,387C 277.167,386.667 296.833,386.333 316.5,386C 348.083,361.254 357.916,329.754 346,291.5C 338.005,273.863 326.005,259.529 310,248.5C 307.166,239.66 310.332,235.827 319.5,237C 356.751,262.672 371.584,297.839 364,342.5C 358.959,359.09 350.459,373.59 338.5,386C 351.5,386.333 364.5,386.667 377.5,387C 382.91,388.743 386.744,392.243 389,397.5C 389.667,428.833 389.667,460.167 389,491.5C 387.594,496.573 384.428,500.073 379.5,502C 338.167,502.667 296.833,502.667 255.5,502C 249.384,499.549 245.884,495.049 245,488.5C 244.5,471.17 244.333,453.837 244.5,436.5C 217.417,442.033 190.084,443.866 162.5,442C 133.833,462 105.167,482 76.5,502C 71.2216,503.726 67.3883,502.226 65,497.5C 69.8064,471.473 75.6397,445.64 82.5,420C 57.0155,407.846 36.5155,390.012 21,366.5C 0.848928,327.119 4.84893,290.452 33,256.5C 60.6253,228.435 93.7919,210.435 132.5,202.5 Z M 267.5,246.5 C 263.335,249.136 259.002,251.636 254.5,254C 253.483,255.049 253.316,256.216 254,257.5C 271.006,280 288.173,302.333 305.5,324.5C 310.279,321.224 314.612,317.391 318.5,313C 301.968,291.434 285.801,269.601 270,247.5C 269.329,246.748 268.496,246.414 267.5,246.5 Z M 260.5,401.5 C 298.5,401.5 336.5,401.5 374.5,401.5C 374.833,430.174 374.5,458.841 373.5,487.5C 336.208,488.66 298.875,488.827 261.5,488C 261,487.5 260.5,487 260,486.5C 259.176,458.095 259.343,429.761 260.5,401.5 Z M 304.5,434.5 C 310.282,437.775 315.948,441.275 321.5,445C 316.002,447.915 310.668,451.081 305.5,454.5C 304.503,447.866 304.17,441.2 304.5,434.5 Z"/></g>
<g><path style="opacity:0.918" fill="#000000" d="M 466.5,226.5 C 484.312,229.14 495.812,239.14 501,256.5C 504.568,276.669 501.901,296.002 493,314.5C 482.985,337.377 468.485,356.877 449.5,373C 430.994,386.677 411.661,388.01 391.5,377C 383.656,370.779 381.489,362.946 385,353.5C 389.542,344.911 394.709,336.744 400.5,329C 409.595,323.936 418.262,324.603 426.5,331C 427.833,331.667 429.167,331.667 430.5,331C 442.591,317.382 451.591,301.882 457.5,284.5C 452.39,280.858 447.557,276.858 443,272.5C 440.69,267.734 440.023,262.734 441,257.5C 445.399,249.037 450.066,240.704 455,232.5C 458.372,229.444 462.206,227.444 466.5,226.5 Z M 468.5,241.5 C 481.822,247.5 488.155,257.833 487.5,272.5C 483.238,310.534 465.905,341.034 435.5,364C 423.892,371.062 412.226,371.228 400.5,364.5C 398.876,363.131 398.376,361.464 399,359.5C 402.708,353.249 406.541,347.083 410.5,341C 411.5,340.333 412.5,340.333 413.5,341C 427.22,350.092 438.72,347.926 448,334.5C 459.484,319.698 467.651,303.198 472.5,285C 472.295,280.338 470.795,276.171 468,272.5C 463.469,269.669 459.303,266.503 455.5,263C 458.988,255.168 463.321,248.001 468.5,241.5 Z"/></g>
<g><path style="opacity:0.926" fill="#000000" d="M 99.5,286.5 C 142.835,286.333 186.168,286.5 229.5,287C 232.366,288.393 233.699,290.726 233.5,294C 233.699,297.274 232.366,299.607 229.5,301C 186.167,301.667 142.833,301.667 99.5,301C 94.2138,296.169 94.2138,291.335 99.5,286.5 Z"/></g>
<g><path style="opacity:0.928" fill="#000000" d="M 99.5,338.5 C 158.168,338.333 216.834,338.5 275.5,339C 280.986,344.081 280.653,348.748 274.5,353C 216.5,353.667 158.5,353.667 100.5,353C 95.3106,350.087 94.1439,345.92 97,340.5C 97.9947,339.934 98.828,339.267 99.5,338.5 Z"/></g>
<g><path style="opacity:0.922" fill="#000000" d="M 293.5,414.5 C 295.857,414.337 298.19,414.503 300.5,415C 314.748,423.04 328.915,431.207 343,439.5C 345.587,444.413 344.753,448.58 340.5,452C 329.337,458.081 318.337,464.414 307.5,471C 304.162,472.92 300.662,474.42 297,475.5C 293.139,475.307 290.805,473.307 290,469.5C 289.333,453.167 289.333,436.833 290,420.5C 290.564,418.113 291.73,416.113 293.5,414.5 Z M 304.5,434.5 C 304.17,441.2 304.503,447.866 305.5,454.5C 310.668,451.081 316.002,447.915 321.5,445C 315.948,441.275 310.282,437.775 304.5,434.5 Z"/></g>
</svg>
