<?xml version="1.0" encoding="UTF-8"?>
<!DOCTYPE svg PUBLIC "-//W3C//DTD SVG 1.1//EN" "http://www.w3.org/Graphics/SVG/1.1/DTD/svg11.dtd">
<svg xmlns="http://www.w3.org/2000/svg" version="1.1" width="128px" height="128px" style="shape-rendering:geometricPrecision; text-rendering:geometricPrecision; image-rendering:optimizeQuality; fill-rule:evenodd; clip-rule:evenodd" xmlns:xlink="http://www.w3.org/1999/xlink">
<g><path style="opacity:0.841" fill="#000000" d="M 95.5,-0.5 C 98.8333,-0.5 102.167,-0.5 105.5,-0.5C 110.99,3.31981 112.99,8.65314 111.5,15.5C 115.737,15.8654 118.904,17.8654 121,21.5C 121.667,46.1667 121.667,70.8333 121,95.5C 119.749,98.3807 117.583,100.214 114.5,101C 100.5,101.333 86.5,101.667 72.5,102C 73.5731,105.12 74.5731,108.287 75.5,111.5C 80.915,111.684 85.415,113.684 89,117.5C 89.4935,119.134 89.6602,120.801 89.5,122.5C 92.8333,122.5 96.1667,122.5 99.5,122.5C 99.5,124.167 99.5,125.833 99.5,127.5C 75.5,127.5 51.5,127.5 27.5,127.5C 27.5,125.833 27.5,124.167 27.5,122.5C 30.8333,122.5 34.1667,122.5 37.5,122.5C 37.0136,119.245 38.0136,116.578 40.5,114.5C 44.0843,113.225 47.751,112.225 51.5,111.5C 52.4269,108.287 53.4269,105.12 54.5,102C 40.5,101.667 26.5,101.333 12.5,101C 10.4127,100.208 8.57934,99.0412 7,97.5C 5.35255,72.254 5.01922,46.9207 6,21.5C 7.2506,18.6193 9.41727,16.786 12.5,16C 36.1667,15.6667 59.8333,15.3333 83.5,15C 86.685,9.09279 90.685,3.92612 95.5,-0.5 Z M 97.5,5.5 C 104,4.49867 106.5,7.16534 105,13.5C 99.3333,20.1667 93.6667,26.8333 88,33.5C 85.8333,32 83.6667,30.5 81.5,29C 86.967,21.2245 92.3003,13.3912 97.5,5.5 Z M 14.5,21.5 C 35.8437,21.167 57.1771,21.5003 78.5,22.5C 75.1667,27.5 71.8333,32.5 68.5,37.5C 61.7047,37.8107 56.538,40.8107 53,46.5C 51.0426,53.8193 51.0426,61.1527 53,68.5C 53.6891,69.3567 54.5224,70.0233 55.5,70.5C 57.6297,69.5328 59.6297,68.3662 61.5,67C 77.1097,70.0271 84.6097,63.8604 84,48.5C 91.3553,39.9791 98.522,31.3124 105.5,22.5C 108.577,21.2012 111.577,21.3678 114.5,23C 115.492,39.7561 115.825,56.5895 115.5,73.5C 89.1646,73.3334 62.8312,73.5 36.5,74C 34.4732,75.3957 34.1398,77.0624 35.5,79C 62.1646,79.5 88.8313,79.6666 115.5,79.5C 115.666,84.1785 115.499,88.8452 115,93.5C 114.25,94.1258 113.416,94.6258 112.5,95C 79.8333,95.6667 47.1667,95.6667 14.5,95C 13.5838,94.6258 12.7504,94.1258 12,93.5C 11.5008,88.8452 11.3342,84.1785 11.5,79.5C 14.1873,79.6641 16.854,79.4974 19.5,79C 20.8333,77.3333 20.8333,75.6667 19.5,74C 16.854,73.5026 14.1873,73.3359 11.5,73.5C 11.3334,56.83 11.5001,40.1633 12,23.5C 12.9947,22.9341 13.828,22.2674 14.5,21.5 Z M 77.5,34.5 C 79.906,35.399 81.906,36.899 83.5,39C 80.7973,44.7355 77.7973,44.9021 74.5,39.5C 75.7629,37.9713 76.7629,36.3046 77.5,34.5 Z M 67.5,43.5 C 70.7889,45.6158 73.9556,47.9491 77,50.5C 79.0349,54.3022 78.2016,57.4689 74.5,60C 68.8005,60.3116 63.1339,60.8116 57.5,61.5C 55.2152,52.0472 58.5486,46.0472 67.5,43.5 Z M 60.5,101.5 C 62.604,101.201 64.604,101.534 66.5,102.5C 67.802,105.708 68.4687,109.041 68.5,112.5C 65.1667,112.5 61.8333,112.5 58.5,112.5C 58.6911,108.738 59.3578,105.071 60.5,101.5 Z M 45.5,118.5 C 57.5046,118.333 69.5046,118.5 81.5,119C 82.9733,119.71 83.6399,120.876 83.5,122.5C 70.1667,122.5 56.8333,122.5 43.5,122.5C 43.5271,120.801 44.1938,119.467 45.5,118.5 Z"/></g>
<g><path style="opacity:0.616" fill="#000000" d="M 25.5,73.5 C 30.1585,73.0146 31.4919,74.848 29.5,79C 24.7107,79.8446 23.3774,78.0113 25.5,73.5 Z"/></g>
</svg>
